<svg xmlns="http://www.w3.org/2000/svg" viewBox="835 510 20 24">
  <defs>
    <style>
      .cls-1 {
        fill: #fff;
      }
    </style>
  </defs>
  <path id="iconmonstr-android-os-1" class="cls-1" d="M6,8v9.444A1.555,1.555,0,0,0,7.558,19H8v3.542A1.506,1.506,0,0,0,9.51,24,1.486,1.486,0,0,0,11,22.541V19h2v3.542A1.506,1.506,0,0,0,14.511,24,1.485,1.485,0,0,0,16,22.541V19h.444A1.557,1.557,0,0,0,18,17.442V8H6ZM22,9.471a1.5,1.5,0,0,0-3,0v6.106a1.5,1.5,0,0,0,3,0V9.471Zm-17,0a1.5,1.5,0,0,0-3,0v6.106A1.463,1.463,0,0,0,3.5,17,1.463,1.463,0,0,0,5,15.578V9.471Zm9.951-7.312L15.891.3a.2.2,0,0,0-.163-.3.185.185,0,0,0-.164.1l-.949,1.878a6.172,6.172,0,0,0-5.229,0L8.436.1A.183.183,0,0,0,8.272,0a.2.2,0,0,0-.163.3l.94,1.859A5.345,5.345,0,0,0,6,7H18A5.345,5.345,0,0,0,14.951,2.159ZM9.5,5a.5.5,0,1,1,.5-.5A.5.5,0,0,1,9.5,5Zm5,0a.5.5,0,1,1,.5-.5A.5.5,0,0,1,14.5,5Z" transform="translate(833 510)"/>
</svg>
