<svg xmlns="http://www.w3.org/2000/svg" viewBox="865 510 20 23.999">
  <defs>
    <style>
      .cls-1 {
        fill: #fff;
      }
    </style>
  </defs>
  <path id="iconmonstr-apple-os-1" class="cls-1" d="M22,17.607c-.786,2.28-3.139,6.317-5.563,6.361-1.608.031-2.125-.953-3.963-.953s-2.412.923-3.932.983C5.97,24.1,2,18.171,2,13,2,8.256,5.308,5.9,8.2,5.86c1.55-.028,3.014,1.045,3.959,1.045s2.727-1.29,4.6-1.1a5.608,5.608,0,0,1,4.389,2.377C17.4,10.623,17.984,15.73,22,17.607ZM16.778,0a5.311,5.311,0,0,0-4.81,5.531C14.58,5.734,17.086,2.806,16.778,0Z" transform="translate(863 510)"/>
</svg>
