<svg xmlns="http://www.w3.org/2000/svg" viewBox="1105.797 20.797 29.203 29.203">
  <defs>
    <style>
      .cls-1 {
        fill: #fff;
      }
    </style>
  </defs>
  <path id="iconmonstr-twitter-5" class="cls-1" d="M14.6,2.434A12.168,12.168,0,1,1,2.434,14.6,12.182,12.182,0,0,1,14.6,2.434ZM14.6,0A14.6,14.6,0,1,0,29.2,14.6,14.6,14.6,0,0,0,14.6,0Zm7.909,10.681a6,6,0,0,1-1.721.472A3.009,3.009,0,0,0,22.108,9.5a5.994,5.994,0,0,1-1.9.726,3,3,0,0,0-5.1,2.732,8.509,8.509,0,0,1-6.174-3.13,3,3,0,0,0,.927,4A2.99,2.99,0,0,1,8.5,13.449a3,3,0,0,0,2.4,2.975,3,3,0,0,1-1.353.051,3,3,0,0,0,2.8,2.08A6.029,6.029,0,0,1,7.909,19.8a8.52,8.52,0,0,0,13.106-7.566A6.039,6.039,0,0,0,22.511,10.681Z" transform="translate(1105.797 20.797)"/>
</svg>
