<svg xmlns="http://www.w3.org/2000/svg" viewBox="491.382 550.304 22.949 27.538">
  <defs>
    <style>
      .cls-1 {
        fill: #583318;
      }
    </style>
  </defs>
  <path id="iconmonstr-android-os-1" class="cls-1" d="M6.59,9.179V20.016A1.784,1.784,0,0,0,8.377,21.8h.507v4.064a1.728,1.728,0,0,0,1.733,1.673,1.705,1.705,0,0,0,1.71-1.674V21.8h2.295v4.064a1.728,1.728,0,0,0,1.734,1.673,1.7,1.7,0,0,0,1.709-1.674V21.8h.509a1.786,1.786,0,0,0,1.785-1.787V9.179H6.59Zm18.359,1.688a1.721,1.721,0,0,0-3.442,0v7.006a1.724,1.724,0,0,0,3.442,0V10.867Zm-19.506,0a1.721,1.721,0,0,0-3.442,0v7.006a1.679,1.679,0,0,0,1.721,1.632,1.679,1.679,0,0,0,1.721-1.632V10.867ZM16.86,2.477,17.939.344A.232.232,0,0,0,17.752,0a.212.212,0,0,0-.188.12L16.475,2.275a7.082,7.082,0,0,0-6,0L9.385.12A.21.21,0,0,0,9.2,0,.232.232,0,0,0,9.01.344l1.079,2.133a6.133,6.133,0,0,0-3.5,5.554H20.359A6.133,6.133,0,0,0,16.86,2.477Zm-6.254,3.26a.574.574,0,1,1,.573-.574A.575.575,0,0,1,10.607,5.737Zm5.735,0a.574.574,0,1,1,.575-.574A.573.573,0,0,1,16.342,5.737Z" transform="translate(489.382 550.304)"/>
</svg>
