<svg xmlns="http://www.w3.org/2000/svg" viewBox="1023.055 20.797 29.203 29.203">
  <defs>
    <style>
      .cls-1 {
        fill: #fff;
      }
    </style>
  </defs>
  <path id="iconmonstr-facebook-5" class="cls-1" d="M14.6,2.434A12.168,12.168,0,1,1,2.434,14.6,12.182,12.182,0,0,1,14.6,2.434ZM14.6,0A14.6,14.6,0,1,0,29.2,14.6,14.6,14.6,0,0,0,14.6,0ZM12.168,12.168H9.734V14.6h2.434v7.3h3.65V14.6h2.215l.219-2.434H15.818V11.154c0-.582.117-.812.679-.812h1.755V7.3H15.327c-2.188,0-3.159.964-3.159,2.808v2.059Z" transform="translate(1023.055 20.797)"/>
</svg>
