<svg xmlns="http://www.w3.org/2000/svg" viewBox="1064.426 20.797 29.203 29.203">
  <defs>
    <style>
      .cls-1 {
        fill: #fff;
      }
    </style>
  </defs>
  <path id="iconmonstr-instagram-15" class="cls-1" d="M14.6,2.434A12.168,12.168,0,1,1,2.434,14.6,12.182,12.182,0,0,1,14.6,2.434ZM14.6,0A14.6,14.6,0,1,0,29.2,14.6,14.6,14.6,0,0,0,14.6,0Zm0,8.617c1.949,0,2.181.007,2.951.043a2.743,2.743,0,0,1,2.993,2.992c.034.77.041,1,.041,2.95s-.007,2.181-.041,2.95a2.744,2.744,0,0,1-2.993,2.993c-.77.034-1,.043-2.951.043s-2.18-.007-2.95-.043a2.745,2.745,0,0,1-2.993-2.993c-.034-.769-.043-1-.043-2.95s.009-2.181.043-2.95a2.742,2.742,0,0,1,2.993-2.993c.769-.035,1-.041,2.95-.041Zm0-1.317c-1.983,0-2.23.009-3.01.045a4.029,4.029,0,0,0-4.247,4.245c-.035.78-.044,1.028-.044,3.01s.009,2.232.044,3.01a4.031,4.031,0,0,0,4.247,4.247c.78.035,1.027.044,3.01.044s2.232-.009,3.012-.044a4.03,4.03,0,0,0,4.245-4.247c.035-.779.044-1.027.044-3.01s-.009-2.23-.044-3.01a4.028,4.028,0,0,0-4.245-4.245c-.78-.037-1.028-.045-3.012-.045Zm0,3.552A3.749,3.749,0,1,0,18.351,14.6,3.749,3.749,0,0,0,14.6,10.853Zm0,6.183A2.434,2.434,0,1,1,17.036,14.6,2.433,2.433,0,0,1,14.6,17.035Zm3.9-7.206a.876.876,0,1,0,.877.876A.876.876,0,0,0,18.5,9.829Z" transform="translate(1064.426 20.797)"/>
</svg>
