<svg xmlns="http://www.w3.org/2000/svg" xmlns:xlink="http://www.w3.org/1999/xlink" viewBox="2039.203 125.5 136.677 17.98">
  <defs>
    <style>
      .cls-1 {
        fill: #ff9141;
      }

      .cls-2 {
        fill: none;
      }

      .cls-3 {
        clip-path: url(#clip-path);
      }

      .cls-4 {
        clip-path: url(#clip-path-2);
      }

      .cls-5 {
        fill: #ffa25f;
      }
    </style>
    <clipPath id="clip-path">
      <rect class="cls-2" width="136.677" height="17.98"/>
    </clipPath>
    <clipPath id="clip-path-2">
      <path id="Path_644" data-name="Path 644" class="cls-1" d="M0-421.182H18.677v17.98H0Z" transform="translate(0 421.182)"/>
    </clipPath>
  </defs>
  <g id="Group_847" data-name="Group 847" transform="translate(1123 -107)">
    <g id="Repeat_Grid_1" data-name="Repeat Grid 1" class="cls-3" transform="translate(916.203 232.5)">
      <g id="Group_22" data-name="Group 22">
        <g id="Group_842" data-name="Group 842" class="cls-4">
          <g id="Group_841" data-name="Group 841" transform="translate(0 0)">
            <path id="Path_643" data-name="Path 643" class="cls-5" d="M-330.967-403.077a.721.721,0,0,0,.623-.8c0-.01,0-.021,0-.032l-.914-5.6,4-3.989a.725.725,0,0,0,0-1.021.714.714,0,0,0-.4-.205l-5.568-.857-2.524-5.073a.714.714,0,0,0-.962-.32.719.719,0,0,0-.318.32l-2.524,5.073-5.568.857a.721.721,0,0,0-.6.824.723.723,0,0,0,.2.4l4,3.989-.914,5.6a.721.721,0,0,0,.587.832.711.711,0,0,0,.453-.073l5-2.607,5,2.607a.712.712,0,0,0,.422.078Z" transform="translate(345.727 421.052)"/>
          </g>
        </g>
      </g>
      <g id="Group_22-2" data-name="Group 22" transform="translate(28)">
        <g id="Group_842-2" data-name="Group 842" class="cls-4">
          <g id="Group_841-2" data-name="Group 841" transform="translate(0 0)">
            <path id="Path_643-2" data-name="Path 643" class="cls-5" d="M-330.967-403.077a.721.721,0,0,0,.623-.8c0-.01,0-.021,0-.032l-.914-5.6,4-3.989a.725.725,0,0,0,0-1.021.714.714,0,0,0-.4-.205l-5.568-.857-2.524-5.073a.714.714,0,0,0-.962-.32.719.719,0,0,0-.318.32l-2.524,5.073-5.568.857a.721.721,0,0,0-.6.824.723.723,0,0,0,.2.4l4,3.989-.914,5.6a.721.721,0,0,0,.587.832.711.711,0,0,0,.453-.073l5-2.607,5,2.607a.712.712,0,0,0,.422.078Z" transform="translate(345.727 421.052)"/>
          </g>
        </g>
      </g>
      <g id="Group_22-3" data-name="Group 22" transform="translate(56)">
        <g id="Group_842-3" data-name="Group 842" class="cls-4">
          <g id="Group_841-3" data-name="Group 841" transform="translate(0 0)">
            <path id="Path_643-3" data-name="Path 643" class="cls-5" d="M-330.967-403.077a.721.721,0,0,0,.623-.8c0-.01,0-.021,0-.032l-.914-5.6,4-3.989a.725.725,0,0,0,0-1.021.714.714,0,0,0-.4-.205l-5.568-.857-2.524-5.073a.714.714,0,0,0-.962-.32.719.719,0,0,0-.318.32l-2.524,5.073-5.568.857a.721.721,0,0,0-.6.824.723.723,0,0,0,.2.4l4,3.989-.914,5.6a.721.721,0,0,0,.587.832.711.711,0,0,0,.453-.073l5-2.607,5,2.607a.712.712,0,0,0,.422.078Z" transform="translate(345.727 421.052)"/>
          </g>
        </g>
      </g>
      <g id="Group_22-4" data-name="Group 22" transform="translate(84)">
        <g id="Group_842-4" data-name="Group 842" class="cls-4">
          <g id="Group_841-4" data-name="Group 841" transform="translate(0 0)">
            <path id="Path_643-4" data-name="Path 643" class="cls-5" d="M-330.967-403.077a.721.721,0,0,0,.623-.8c0-.01,0-.021,0-.032l-.914-5.6,4-3.989a.725.725,0,0,0,0-1.021.714.714,0,0,0-.4-.205l-5.568-.857-2.524-5.073a.714.714,0,0,0-.962-.32.719.719,0,0,0-.318.32l-2.524,5.073-5.568.857a.721.721,0,0,0-.6.824.723.723,0,0,0,.2.4l4,3.989-.914,5.6a.721.721,0,0,0,.587.832.711.711,0,0,0,.453-.073l5-2.607,5,2.607a.712.712,0,0,0,.422.078Z" transform="translate(345.727 421.052)"/>
          </g>
        </g>
      </g>
      <g id="Group_22-5" data-name="Group 22" transform="translate(112)">
        <g id="Group_842-5" data-name="Group 842" class="cls-4">
          <g id="Group_841-5" data-name="Group 841" transform="translate(0 0)">
            <path id="Path_643-5" data-name="Path 643" class="cls-5" d="M-330.967-403.077a.721.721,0,0,0,.623-.8c0-.01,0-.021,0-.032l-.914-5.6,4-3.989a.725.725,0,0,0,0-1.021.714.714,0,0,0-.4-.205l-5.568-.857-2.524-5.073a.714.714,0,0,0-.962-.32.719.719,0,0,0-.318.32l-2.524,5.073-5.568.857a.721.721,0,0,0-.6.824.723.723,0,0,0,.2.4l4,3.989-.914,5.6a.721.721,0,0,0,.587.832.711.711,0,0,0,.453-.073l5-2.607,5,2.607a.712.712,0,0,0,.422.078Z" transform="translate(345.727 421.052)"/>
          </g>
        </g>
      </g>
    </g>
  </g>
</svg>
