<svg xmlns="http://www.w3.org/2000/svg" viewBox="732.343 549.157 22.949 27.538">
  <defs>
    <style>
      .cls-1 {
        fill: #583318;
      }
    </style>
  </defs>
  <path id="iconmonstr-apple-os-1" class="cls-1" d="M24.949,20.2c-.9,2.616-3.6,7.248-6.383,7.3-1.845.036-2.438-1.094-4.547-1.094s-2.768,1.059-4.512,1.128C6.555,27.65,2,20.85,2,14.92c0-5.447,3.8-8.147,7.112-8.2,1.779-.032,3.458,1.2,4.543,1.2s3.129-1.48,5.274-1.263a6.435,6.435,0,0,1,5.036,2.727c-4.293,2.8-3.624,8.662.984,10.816ZM18.957,0a6.094,6.094,0,0,0-5.519,6.346C16.435,6.579,19.31,3.22,18.957,0Z" transform="translate(730.343 549.157)"/>
</svg>
