<svg xmlns="http://www.w3.org/2000/svg" xmlns:xlink="http://www.w3.org/1999/xlink" viewBox="827.587 1563.088 132.023 113.291">
  <defs>
    <style>
      .cls-1 {
        fill: none;
      }

      .cls-2 {
        clip-path: url(#clip-path);
      }

      .cls-3 {
        fill: #573317;
      }
    </style>
    <clipPath id="clip-path">
      <path id="Path_86" data-name="Path 86" class="cls-1" d="M0-639.468H132.023v113.291H0Z" transform="translate(0 639.468)"/>
    </clipPath>
  </defs>
  <g id="Group_94" data-name="Group 94" transform="translate(827.587 1563.088)">
    <g id="Group_93" data-name="Group 93" class="cls-2">
      <g id="Group_76" data-name="Group 76" transform="translate(2.491 41.051)">
        <path id="Path_69" data-name="Path 69" class="cls-3" d="M-414.509-45.937c-.043.248-.088.468-.137.659l-.463,1.512a22.588,22.588,0,0,1-1.1,2.556,16.361,16.361,0,0,1-1.284,2.14,7.231,7.231,0,0,1-1.323,1.449,1.951,1.951,0,0,1-1.214.514.743.743,0,0,1-.366-.151,1.088,1.088,0,0,1-.322-.4,1.993,1.993,0,0,1-.176-.677,2.96,2.96,0,0,1,.071-.948,12.761,12.761,0,0,1,.578-1.734q.385-.946.874-1.9t1.053-1.855a11.661,11.661,0,0,1,1.169-1.571,5.4,5.4,0,0,1,1.212-1.036,1.556,1.556,0,0,1,1.14-.245.468.468,0,0,1,.284.37,2.893,2.893,0,0,1,.067.62,4.1,4.1,0,0,1-.064.7m-21.3,17.95a7.18,7.18,0,0,1-1.9,1.25,1.775,1.775,0,0,1-1.163.2.534.534,0,0,1-.395-.444,1.093,1.093,0,0,1,.306-.711,2.413,2.413,0,0,1,.9-.707l0,.034,3.531-1.809.346.311a10.735,10.735,0,0,1-1.624,1.881m-40.357-7.493a.291.291,0,0,1,.069-.165l-.024.107A10.053,10.053,0,0,1-474.94-38a12.51,12.51,0,0,1,1.515-1.922,4.682,4.682,0,0,1,1.336-1.015q.58-.253.633.228a1.726,1.726,0,0,1-.076.583,5.654,5.654,0,0,1-.382.964,16.115,16.115,0,0,1-1.824,2.3,12.251,12.251,0,0,1-2.383,1.946,4.343,4.343,0,0,1-.044-.569m38.782-4.191a.3.3,0,0,1,.07-.164l-.024.107a10.117,10.117,0,0,1,1.179-2.46,12.447,12.447,0,0,1,1.515-1.922,4.7,4.7,0,0,1,1.336-1.015q.583-.254.635.227a1.77,1.77,0,0,1-.077.583,5.684,5.684,0,0,1-.384.964,15.961,15.961,0,0,1-1.823,2.3,12.263,12.263,0,0,1-2.383,1.946,4.626,4.626,0,0,1-.044-.57m25.138,1.278c-.492.3-.768.185-.824-.336a2.142,2.142,0,0,1,.085-.654c.073-.3.172-.627.293-.989q.255-.863.679-1.936t.852-2.112q.428-1.038.824-1.881a10.961,10.961,0,0,1,.665-1.256,1.726,1.726,0,0,0,.3-.606,1.684,1.684,0,0,0,.028-.543,1.268,1.268,0,0,0-.66-.955,2.019,2.019,0,0,0-1.32-.293,2.279,2.279,0,0,0-.824.263,2.1,2.1,0,0,0-.716.634l0,.034-.306.382a5.423,5.423,0,0,0-.825-.538,2.924,2.924,0,0,0-.835-.327,7.307,7.307,0,0,0-2.438.8,11.781,11.781,0,0,0-2.3,1.606,16.1,16.1,0,0,0-2.028,2.169,16.247,16.247,0,0,0-1.6,2.47,11.7,11.7,0,0,0-.94,2.4q-.265.4-.574.806a21.034,21.034,0,0,1-1.514,1.783,17.275,17.275,0,0,1-2.016,1.8l-.014-.765.106-.324c.06-.285.152-.631.27-1.039s.251-.845.4-1.314.3-.943.473-1.426.343-.943.529-1.38q.385-.947.817-1.794l.746-1.473.477-1.061,0,.034c.052-.167.1-.33.139-.485a1.372,1.372,0,0,0,.032-.508,1.1,1.1,0,0,0-.6-.927,2.134,2.134,0,0,0-1.222-.2,2.913,2.913,0,0,0-1.144.385,1.841,1.841,0,0,0-.8.94l-.032.038a14.234,14.234,0,0,0-1.653,3.712c-.178.59-.35,1.192-.524,1.8q-.384.592-.789,1.2a19.845,19.845,0,0,1-1.8,2.318,9.339,9.339,0,0,1-1.946,1.656,3.358,3.358,0,0,1-2.1.54q-.895-.217-1.031-1.49a16.093,16.093,0,0,0,3.7-2.349,13.163,13.163,0,0,0,2.809-3.158,5.3,5.3,0,0,0,.613-1.406,3.842,3.842,0,0,0,.125-1.424,2.29,2.29,0,0,0-.792-1.533,2.925,2.925,0,0,0-2.145-.517,6.138,6.138,0,0,0-2.781.84,9.212,9.212,0,0,0-2.252,1.88,13.314,13.314,0,0,0-1.743,2.555,19.642,19.642,0,0,0-.907,1.964,2.2,2.2,0,0,1-.423.234,2.056,2.056,0,0,1-1.314.09,3.751,3.751,0,0,1-1.012-.5,1.608,1.608,0,0,1-.665-.851,8.9,8.9,0,0,0,1.137-1.882,2.778,2.778,0,0,0,.263-1.264.966.966,0,0,0-.575-.825,2.182,2.182,0,0,0-1.268-.125,2.9,2.9,0,0,0-1.245.57,5.211,5.211,0,0,0-1.1,1.111,4.1,4.1,0,0,0-.668,1.395,2.43,2.43,0,0,0,.011,1.392,2.65,2.65,0,0,1-.319,1.88,13.865,13.865,0,0,1-1.333,2.163,16.674,16.674,0,0,1-1.576,1.841,12.62,12.62,0,0,1-1.012.945q-.741.568-1.087.257a1.513,1.513,0,0,1-.421-1,4.288,4.288,0,0,1-.011-.747c.017-.268.042-.527.073-.773s.066-.472.1-.672a2.918,2.918,0,0,1,.108-.448q.266-.76.562-1.558t.6-1.528q.3-.729.6-1.353a9.2,9.2,0,0,1,.568-1.036,1.846,1.846,0,0,0,.294-1.146,1.29,1.29,0,0,0-.644-.958,1.958,1.958,0,0,0-1.3-.294,2.217,2.217,0,0,0-1.574.9,9.772,9.772,0,0,0-.6,1.023q-.362.684-.738,1.559t-.769,1.894q-.395,1.017-.742,2a11.924,11.924,0,0,0-.257,1.174c-.343.593-.694,1.15-1.054,1.665a8.537,8.537,0,0,1-1.205,1.419q-.586.533-1.034.268a.828.828,0,0,1-.356-.727,3.923,3.923,0,0,1,.151-1.166,12.292,12.292,0,0,1,.478-1.392q.3-.747.63-1.408a11.814,11.814,0,0,1,.657-1.168,5.581,5.581,0,0,1,.547-.738.449.449,0,0,0,.025-.577,2.736,2.736,0,0,0-.579-.685,9.271,9.271,0,0,0-.837-.658,5.88,5.88,0,0,0-.745-.46,1.677,1.677,0,0,0-.94-.159,7.924,7.924,0,0,0-1.147.176,4.5,4.5,0,0,1-.616.1l-.688.075a10,10,0,0,0,.5-1.151,2.1,2.1,0,0,0,.146-.9,2.242,2.242,0,0,0-.38-.933,1.193,1.193,0,0,0-.985-.416,2.2,2.2,0,0,0-1.064.463,4.865,4.865,0,0,0-.989.995,6.2,6.2,0,0,0-.734,1.263,2.891,2.891,0,0,0-.259,1.3,2.886,2.886,0,0,0,.167,1.061,2.482,2.482,0,0,0,.446.753l-.634,1.217-.088.158q-.76,1.212-1.612,2.48a19.625,19.625,0,0,1-1.8,2.318,9.343,9.343,0,0,1-1.945,1.656,3.355,3.355,0,0,1-2.1.54q-.894-.217-1.031-1.49a16.2,16.2,0,0,0,3.7-2.349,13.217,13.217,0,0,0,2.809-3.158,5.37,5.37,0,0,0,.613-1.407,3.824,3.824,0,0,0,.125-1.424,2.288,2.288,0,0,0-.791-1.533,2.924,2.924,0,0,0-2.145-.517,6.131,6.131,0,0,0-2.781.84,9.179,9.179,0,0,0-2.252,1.88,13.3,13.3,0,0,0-1.744,2.556,19.2,19.2,0,0,0-1.226,2.83l-.039.153a17.187,17.187,0,0,1-1.291,1.7,16.523,16.523,0,0,1-2.8,2.566,15.775,15.775,0,0,1-3.286,1.817,14.446,14.446,0,0,1-3.639.95,8.307,8.307,0,0,1-3.184-.143,6.167,6.167,0,0,1-2.411-1.219,6.256,6.256,0,0,1-1.619-2.088,8.415,8.415,0,0,1-.771-2.789,12.18,12.18,0,0,1,.243-3.873,17.812,17.812,0,0,1,1.529-4.221A23.74,23.74,0,0,1-493.2-48.61a15.177,15.177,0,0,1,5.769-3.635,6.082,6.082,0,0,1,1.095-.345q.528-.11,1.009-.161a3.591,3.591,0,0,1,2.536.422,2.308,2.308,0,0,1,.928,1.675,3.871,3.871,0,0,1-.114,1.353,6.092,6.092,0,0,1-.575,1.455,8.7,8.7,0,0,1-.961,1.409,7.921,7.921,0,0,1-1.244,1.214,1.091,1.091,0,0,0-.511,1.065,1.689,1.689,0,0,0,.352.85,2.206,2.206,0,0,0,.748.633,2.339,2.339,0,0,0,.952.262,1.443,1.443,0,0,0,.96-.295,12,12,0,0,0,1.755-1.478A11.767,11.767,0,0,0-479.025-46a8.421,8.421,0,0,0,.969-1.985,5.176,5.176,0,0,0,.268-2.031,8.04,8.04,0,0,0-.358-1.875,5.626,5.626,0,0,0-.84-1.65,5.194,5.194,0,0,0-1.355-1.263,6.087,6.087,0,0,0-1.913-.786l.035,0a11.845,11.845,0,0,0-3.6-.167,14.268,14.268,0,0,0-4.743,1.383,23.9,23.9,0,0,0-4.3,2.693,28.066,28.066,0,0,0-3.635,3.4,25.342,25.342,0,0,0-2.667,3.509,22,22,0,0,0-2.082,5.377,15.059,15.059,0,0,0-.434,5.165,12.009,12.009,0,0,0,1.084,3.92,9.066,9.066,0,0,0,2.33,3.039,9.315,9.315,0,0,0,3.507,1.832,11.21,11.21,0,0,0,4.6.233,14.275,14.275,0,0,0,4.513-1.237,17.12,17.12,0,0,0,3.877-2.473,19.985,19.985,0,0,0,3.053-3.238c.3,1.865,1.63,2.871,4.007,3.016a5.992,5.992,0,0,0,1.112-.016,6.017,6.017,0,0,0,2.665-.949,11.434,11.434,0,0,0,2.261-1.951,18.941,18.941,0,0,0,1.918-2.54q.877-1.381,1.6-2.748a3.447,3.447,0,0,0,.333-.763l.321-.6.492-.924c.228-.025.424-.051.583-.081s.329-.064.51-.108q.512-.088.924-.152a1.166,1.166,0,0,1,.629.036.378.378,0,0,1,.2.414,2.534,2.534,0,0,1-.367.945,14.837,14.837,0,0,0-1.188,2.7A5.088,5.088,0,0,0-464.809-33a2.691,2.691,0,0,0,.939,1.447,2.913,2.913,0,0,0,1.619.643,3.693,3.693,0,0,0,2.41-.73,9.447,9.447,0,0,0,2.058-2.067c.09-.122.178-.251.266-.378a3.959,3.959,0,0,0,.863,1.493,2.983,2.983,0,0,0,2.6.833,5.7,5.7,0,0,0,2.033-.516,6.139,6.139,0,0,0,1.739-1.3,14.544,14.544,0,0,0,1.725-2.241q.879-1.366,2.02-3.369a4.966,4.966,0,0,0,3.657,1.311,4.177,4.177,0,0,0,.968-.222c-.007.04-.015.081-.021.121a5.245,5.245,0,0,0-.04,1.4q.327,3.028,4.042,3.254a5.97,5.97,0,0,0,1.112-.016,6.007,6.007,0,0,0,2.665-.949,11.442,11.442,0,0,0,2.261-1.95c.161-.178.317-.361.471-.547l-.137.581q-.2.718-.433,1.474c-.154.5-.3.972-.439,1.405l-1.658.771q-1.4.637-2.7,1.232a24.713,24.713,0,0,0-2.261,1.15,4.926,4.926,0,0,0-1.678,1.538,2.505,2.505,0,0,0-.422,1.578,2.2,2.2,0,0,0,.491,1.148,3.121,3.121,0,0,0,1.1.856,4.53,4.53,0,0,0,1.592.4,5.478,5.478,0,0,0,1.927-.207,6.8,6.8,0,0,0,2.434-1.152,9.075,9.075,0,0,0,1.85-1.888,13.475,13.475,0,0,0,1.4-2.4,28.582,28.582,0,0,0,1.064-2.708,23.518,23.518,0,0,0,2.667-1.908,18.054,18.054,0,0,0,2.319-2.339q.364,1.825,2.715,2.057a5.383,5.383,0,0,0,2.986-.88,9.98,9.98,0,0,0,2.479-2.357,4.293,4.293,0,0,0,.772,1.676,1.922,1.922,0,0,0,1.368.74,4.13,4.13,0,0,0,2.466-.858.032.032,0,0,1,.011-.008,4.94,4.94,0,0,1-.727-1.509" transform="translate(503.757 55.827)"/>
      </g>
      <g id="Group_77" data-name="Group 77" transform="translate(81.377 41.727)">
        <path id="Path_70" data-name="Path 70" class="cls-3" d="M-1.519-19.214a1.947,1.947,0,0,0,.673.588,2.183,2.183,0,0,0,.864.255,1.991,1.991,0,0,0,.923-.152,2.742,2.742,0,0,0,1.141-1.046A4.606,4.606,0,0,0,2.764-21.3a1.946,1.946,0,0,0-.242-1.122,1.814,1.814,0,0,0-.719-.689,2.181,2.181,0,0,0-.967-.243,1.947,1.947,0,0,0-.952.207,2.634,2.634,0,0,0-.8.661,5.686,5.686,0,0,0-.56.947,2.7,2.7,0,0,0-.363,1.467,1.767,1.767,0,0,0,.318.854" transform="translate(1.847 23.351)"/>
      </g>
      <g id="Group_78" data-name="Group 78" transform="translate(101.562 50.361)">
        <path id="Path_71" data-name="Path 71" class="cls-3" d="M-95.436-29.122a.235.235,0,0,1,.055-.13l-.019.084a7.982,7.982,0,0,1,.93-1.939,9.787,9.787,0,0,1,1.194-1.514,3.677,3.677,0,0,1,1.052-.8q.459-.2.5.179a1.348,1.348,0,0,1-.06.459,4.414,4.414,0,0,1-.3.76,12.537,12.537,0,0,1-1.436,1.815A9.619,9.619,0,0,1-95.4-28.673a3.949,3.949,0,0,1-.034-.448m7.413-2.6c-.033-.307-.14-.451-.321-.431a1.339,1.339,0,0,0-.787.579q-.609.97-1.293,1.991a15.623,15.623,0,0,1-1.422,1.826,7.354,7.354,0,0,1-1.532,1.3,2.649,2.649,0,0,1-1.655.426q-.7-.171-.812-1.174a12.723,12.723,0,0,0,2.913-1.852,10.36,10.36,0,0,0,2.213-2.488,4.2,4.2,0,0,0,.485-1.108,3.049,3.049,0,0,0,.1-1.121,1.8,1.8,0,0,0-.626-1.208,2.3,2.3,0,0,0-1.689-.408,4.828,4.828,0,0,0-2.19.663,7.222,7.222,0,0,0-1.774,1.48,10.456,10.456,0,0,0-1.373,2.013A15.041,15.041,0,0,0-98.754-29c-.06.221-.112.433-.158.637-.056.092-.112.184-.169.276q-.385.618-.778,1.168a8.347,8.347,0,0,1-.713.887q-.765.795-1.043.509t.249-2.015c.056-.151.123-.342.2-.57a5.236,5.236,0,0,1,.272-.66q.218-.517.443-1.1t.407-1.182a10.774,10.774,0,0,0,.286-1.156A3.528,3.528,0,0,0-99.7-33.2a1.189,1.189,0,0,0-.392-.836,1.652,1.652,0,0,0-1.3-.38,4.346,4.346,0,0,0-1.942.814,12.681,12.681,0,0,0-1.984,1.695,4.787,4.787,0,0,0-.144-.957,1.279,1.279,0,0,0-.326-.61,1.737,1.737,0,0,0-1.325-.323,4.129,4.129,0,0,0-1.671.66,11.872,11.872,0,0,0-1.836,1.419,1.882,1.882,0,0,0-.184-.954,1.075,1.075,0,0,0-.689-.542,1.532,1.532,0,0,0-1.279.221,2.3,2.3,0,0,0-.838,1c-.216.529-.417,1.078-.61,1.637a4.87,4.87,0,0,1,.325,1.754,4.911,4.911,0,0,1-1.853,3.841c-.1.517-.179.975-.226,1.362a.628.628,0,0,0,.118.453,1.222,1.222,0,0,0,.38.343,1.759,1.759,0,0,0,.529.2,1.814,1.814,0,0,0,.566.035.849.849,0,0,0,.806-.664l0,.027c.048-.225.129-.544.238-.959s.244-.871.4-1.372.326-1.037.511-1.606.377-1.128.573-1.68a3.326,3.326,0,0,1,.359-.738,6.591,6.591,0,0,1,.526-.715,7.767,7.767,0,0,1,.6-.641,6.777,6.777,0,0,1,.565-.486q.627-.535.934-.239a.958.958,0,0,1,.133.973l-.544,1.568q-.42,1.2-.8,2.4a15.635,15.635,0,0,0-.562,2.544.531.531,0,0,0,.144.437,1.592,1.592,0,0,0,.418.325,1.927,1.927,0,0,0,.557.2,1.969,1.969,0,0,0,.607.03.974.974,0,0,0,.536-.236,1.355,1.355,0,0,0,.35-.436q.1-.393.334-1.228t.5-1.74a5.307,5.307,0,0,1,.273-.771c.117-.269.241-.565.37-.89.1-.213.214-.462.331-.749s.224-.555.325-.8a5.068,5.068,0,0,1,.827-1.1,10.934,10.934,0,0,1,.959-.9q.63-.535.948-.24t.119.974l-.458,1.339q-.235.629-.491,1.3t-.434,1.323a12.659,12.659,0,0,0-.276,1.25,3.337,3.337,0,0,0-.02,1.085,1.4,1.4,0,0,0,.839,1.034,2.932,2.932,0,0,0,1.431.174,4.606,4.606,0,0,0,1.372-.381,4.013,4.013,0,0,0,1.068-.65,7.81,7.81,0,0,0,.689-.856c.135-.19.265-.389.4-.592q.544,1.778,3.055,1.933a4.682,4.682,0,0,0,.876-.013,4.744,4.744,0,0,0,2.1-.748,9.017,9.017,0,0,0,1.781-1.537,14.982,14.982,0,0,0,1.511-2q.692-1.089,1.26-2.166a1.907,1.907,0,0,0,.317-1.131" transform="translate(115.984 35.392)"/>
      </g>
      <g id="Group_79" data-name="Group 79" transform="translate(96.074 54.486)">
        <path id="Path_72" data-name="Path 72" class="cls-3" d="M-24.693-12.346A2.658,2.658,0,0,0-27.352-15a2.658,2.658,0,0,0-2.658,2.658,2.659,2.659,0,0,0,2.658,2.659,2.659,2.659,0,0,0,2.659-2.659" transform="translate(30.01 15.004)"/>
      </g>
      <g id="Group_80" data-name="Group 80" transform="translate(99.072 47.869)">
        <path id="Path_73" data-name="Path 73" class="cls-3" d="M-3.029-66.969a2.484,2.484,0,0,0,.458,1.579,3.047,3.047,0,0,0,.939.858A3.577,3.577,0,0,0-.55-64.11a3.648,3.648,0,0,0,1.155.066A2.667,2.667,0,0,0,2.733-65.41l.193-.353.3.262a3.524,3.524,0,0,0,.59.409,3.8,3.8,0,0,0,1.089.4,3.806,3.806,0,0,0,1.174.058,2.846,2.846,0,0,0,1.539-.672,3.2,3.2,0,0,0,.807-1.028l.236-.489.323.384a3.123,3.123,0,0,0,1.238.891,4.786,4.786,0,0,0,2.317.3,6.435,6.435,0,0,0,1.921-.529,6.281,6.281,0,0,0,1.267-.726l.17-.13.188.107a6.176,6.176,0,0,0,2.707.738A6.557,6.557,0,0,0,20-65.81a6.573,6.573,0,0,0,2.9-1.035,10.878,10.878,0,0,0,2.147-1.849,16.908,16.908,0,0,0,1.7-2.246c.479-.753.922-1.514,1.318-2.262a3.691,3.691,0,0,0,.536-2.22,2.182,2.182,0,0,0-1.874-2.062l-.237-.03-.044-.236a3.636,3.636,0,0,0-1.2-2.119,3.86,3.86,0,0,0-2.622-.87c-.125,0-.255,0-.394.013a6.67,6.67,0,0,0-3.014.915,9.13,9.13,0,0,0-2.13,1.749l-.308.343-.219-.407a2.792,2.792,0,0,0-.68-.831,3.5,3.5,0,0,0-2.68-.8,6.16,6.16,0,0,0-2.784,1.125l-.274.191-.185-.127a3.63,3.63,0,0,0-2.478-.571,5.875,5.875,0,0,0-2.442.926l-.274.173-.175-.108a3.113,3.113,0,0,0-.775-.345l-.083-.022a3.4,3.4,0,0,0-2.747.489A4.122,4.122,0,0,0-.511-76.24l-.019.047-.052.129a5.209,5.209,0,0,1,1.8,3.951,5.261,5.261,0,0,1-4.247,5.143M.236-63.374a4.372,4.372,0,0,1-.924-.1,4.243,4.243,0,0,1-1.276-.5A3.685,3.685,0,0,1-3.1-65.012,3.122,3.122,0,0,1-3.66-67.19l.044-.345.245-.034a4.607,4.607,0,0,0,3.94-4.543,4.57,4.57,0,0,0-1.741-3.6l-.189-.149.088-.224c.047-.122.095-.242.143-.359l.022-.054A4.776,4.776,0,0,1,.615-78.559a4.048,4.048,0,0,1,3.266-.583l.111.029a3.745,3.745,0,0,1,.761.314,6.432,6.432,0,0,1,2.653-.983,4.317,4.317,0,0,1,2.726.559,6.739,6.739,0,0,1,3-1.177,4.14,4.14,0,0,1,3.163.943,3.419,3.419,0,0,1,.6.646,9.646,9.646,0,0,1,1.987-1.56,7.327,7.327,0,0,1,3.3-1c.155-.009.3-.013.433-.013a4.487,4.487,0,0,1,3.05,1.03,4.287,4.287,0,0,1,1.37,2.269,2.822,2.822,0,0,1,2.208,2.6,4.316,4.316,0,0,1-.612,2.6c-.4.755-.853,1.531-1.34,2.3a17.468,17.468,0,0,1-1.764,2.333A11.6,11.6,0,0,1,23.259-66.3a7.223,7.223,0,0,1-3.189,1.136,7.305,7.305,0,0,1-1.319.021,6.967,6.967,0,0,1-2.8-.72,7.207,7.207,0,0,1-1.223.677,7.106,7.106,0,0,1-2.116.581,5.431,5.431,0,0,1-2.631-.341,3.81,3.81,0,0,1-1.174-.741,3.916,3.916,0,0,1-.764.874,3.49,3.49,0,0,1-1.892.824,4.432,4.432,0,0,1-1.373-.066A4.453,4.453,0,0,1,3.5-64.522a4.444,4.444,0,0,1-.4-.252A3.33,3.33,0,0,1,.675-63.4a3.883,3.883,0,0,1-.439.024" transform="translate(3.681 81.388)"/>
      </g>
      <g id="Group_81" data-name="Group 81" transform="translate(0 38.559)">
        <path id="Path_74" data-name="Path 74" class="cls-3" d="M-100.686-37.232a4.658,4.658,0,0,0-.488.029c-.238.026-.5.067-.772.125a3.535,3.535,0,0,0-.643.205l-.154.058a12.793,12.793,0,0,0-4.827,3.054,21.361,21.361,0,0,0-3.978,5.49,15.306,15.306,0,0,0-1.312,3.614,9.751,9.751,0,0,0-.2,3.083,5.981,5.981,0,0,0,.534,1.966,3.749,3.749,0,0,0,.977,1.265,3.651,3.651,0,0,0,1.454.723,5.9,5.9,0,0,0,2.229.08,12.019,12.019,0,0,0,3.017-.786,13.284,13.284,0,0,0,2.766-1.532,13.93,13.93,0,0,0,2.38-2.178,14.062,14.062,0,0,0,.9-1.152,21.8,21.8,0,0,1,1.336-3.058,16.589,16.589,0,0,1,1.053-1.729q-.26.2-.527.381a3.923,3.923,0,0,1-2.546.739,4.822,4.822,0,0,1-1.943-.54,4.68,4.68,0,0,1-1.583-1.339,4.152,4.152,0,0,1-.843-2.086,3.569,3.569,0,0,1,1.495-3.326,5.532,5.532,0,0,0,.819-.808,6.3,6.3,0,0,0,.693-1.011,3.68,3.68,0,0,0,.344-.864,1.789,1.789,0,0,0,.06-.392,2.292,2.292,0,0,0-.236-.011m38.664,13.69.259.109a6.253,6.253,0,0,0,1.654.447l.232.029.047.227a5.034,5.034,0,0,0,3.161,3.789l.562.224-.5.345a6.224,6.224,0,0,0-1.817,1.841,4.283,4.283,0,0,0-.682,2.738,3.993,3.993,0,0,0,.882,2.1,4.945,4.945,0,0,0,1.744,1.367,6.339,6.339,0,0,0,2.238.577,7.291,7.291,0,0,0,2.553-.264,8.656,8.656,0,0,0,3.071-1.462,10.966,10.966,0,0,0,2.225-2.269A15.486,15.486,0,0,0-44.8-16.467c.314-.693.61-1.419.879-2.158l.037-.1.09-.059a25.124,25.124,0,0,0,2.224-1.643c.251-.208.5-.429.749-.658l.184-.172.212.136a5.941,5.941,0,0,0,2.534.827l.184.009a7.214,7.214,0,0,0,3.985-1.177c.284-.185.566-.388.84-.608l.216-.173.2.184a3.727,3.727,0,0,0,2.175.943l.181.008a5.955,5.955,0,0,0,3.549-1.211,5.237,5.237,0,0,1-2.31-4.346,5.243,5.243,0,0,1,3.739-5.02c.119-.27.234-.525.347-.764a9.688,9.688,0,0,1,.521-1,3.5,3.5,0,0,0,.578-1.258,3.556,3.556,0,0,0,.058-1.126,3.114,3.114,0,0,0-1.52-2.322,3.861,3.861,0,0,0-2.489-.559,4.111,4.111,0,0,0-1.492.468,3.913,3.913,0,0,0-.356.216l-.146.1L-29.792-38a4.046,4.046,0,0,0-.812-.248L-30.9-38.3l-.294.04a9.2,9.2,0,0,0-3.048,1c-.3.157-.6.336-.91.533l-1.3.831.065-.022-1.039,1c-.211.2-.4.4-.583.587l-.452.477-.1-.649a3.157,3.157,0,0,0-.089-.388l-.1-.354.365-.057a3.9,3.9,0,0,0,.637-.156l1.262-.424.933-1.35c.01-.015.023-.031.033-.047a6.428,6.428,0,0,0,.96-2.413l.022-.119.007-.122a3.776,3.776,0,0,0-.508-2.166,3.652,3.652,0,0,0-1.444-1.369,4.027,4.027,0,0,0-1.772-.451h-.1a3.761,3.761,0,0,0-1.736.411l-.074.04a4.5,4.5,0,0,0-1.351,1.146,7.4,7.4,0,0,0-.74,1.241,4.468,4.468,0,0,0-.546,2.484,3.657,3.657,0,0,0,.3,1.116l.17.376-.406.077a4.79,4.79,0,0,0-1.512.566,3.641,3.641,0,0,0-1.3,1.263l-.22.359-.291-.3c-.089-.093-.185-.185-.284-.271a4.417,4.417,0,0,0-3-.982c-.154,0-.306,0-.47.015a7.98,7.98,0,0,0-3.6,1.093,11.108,11.108,0,0,0-2.7,2.252,14.745,14.745,0,0,0-.912,1.161l-.428.6L-57.626-32A2.787,2.787,0,0,0-59.2-33.975a3.991,3.991,0,0,0-2.326-.276l-.022,0a4.712,4.712,0,0,0-2.044.91,7.082,7.082,0,0,0-1.315,1.28l-.347.438-.209-.519a3.251,3.251,0,0,0-1.28-1.507,3.792,3.792,0,0,0-2.494-.575,4.054,4.054,0,0,0-2.838,1.613l-.04.054a10.961,10.961,0,0,0-.727,1.224c-.252.476-.5,1-.76,1.6l-.185.425-.338-.318c-.038-.036-.076-.072-.118-.109a11.243,11.243,0,0,0-1-.785,7.652,7.652,0,0,0-.958-.589,3.341,3.341,0,0,0-1.476-.37l-.265-.008-.046-.261a4.123,4.123,0,0,0-.63-1.515l-.106-.164-.137-.138a3.03,3.03,0,0,0-2.183-.965,2.842,2.842,0,0,0-.306.016,4.022,4.022,0,0,0-1.967.817A6.782,6.782,0,0,0-84.68-32.33c-.16.213-.311.437-.45.665l-.171.283-.28-.176a4.73,4.73,0,0,0-2.558-.651c-.153,0-.306,0-.469.015a7.981,7.981,0,0,0-3.6,1.093,11.055,11.055,0,0,0-2.7,2.252A15.215,15.215,0,0,0-96.9-25.942a21.067,21.067,0,0,0-1.31,3.009l-.015.042-.026.038a15.161,15.161,0,0,1-.968,1.245,14.7,14.7,0,0,1-2.49,2.279,13.958,13.958,0,0,1-2.9,1.605,12.678,12.678,0,0,1-3.18.83,6.538,6.538,0,0,1-2.478-.1,4.311,4.311,0,0,1-1.7-.852,4.4,4.4,0,0,1-1.144-1.481,6.625,6.625,0,0,1-.6-2.181,10.406,10.406,0,0,1,.213-3.29,16,16,0,0,1,1.369-3.771,21.978,21.978,0,0,1,4.1-5.659,13.423,13.423,0,0,1,5.073-3.207l.113-.043a4.215,4.215,0,0,1,.761-.242c.293-.061.573-.106.835-.134a5.06,5.06,0,0,1,.556-.033,1.984,1.984,0,0,1,.612.073l.07.024.053.05a.521.521,0,0,1,.143.351,2.07,2.07,0,0,1-.071.711,4.321,4.321,0,0,1-.4,1.018,6.963,6.963,0,0,1-.761,1.115,6.22,6.22,0,0,1-.927.912,2.94,2.94,0,0,0-1.242,2.739,3.524,3.524,0,0,0,.716,1.762,4.02,4.02,0,0,0,1.364,1.155,4.178,4.178,0,0,0,1.684.468c.071,0,.141.006.21.006a3.3,3.3,0,0,0,1.924-.63,13.819,13.819,0,0,0,2.009-1.693,13.767,13.767,0,0,0,1.706-2.1,10.4,10.4,0,0,0,1.178-2.418,7.065,7.065,0,0,0,.356-2.743,10.023,10.023,0,0,0-.442-2.3,7.507,7.507,0,0,0-1.115-2.188,7.1,7.1,0,0,0-1.833-1.712,7.969,7.969,0,0,0-2.487-1.031l.011-.045-.039-.005-.007.032a13.764,13.764,0,0,0-4.16-.192,16.194,16.194,0,0,0-5.351,1.557,25.843,25.843,0,0,0-4.635,2.9A30.1,30.1,0,0,0-116-36.435a27.473,27.473,0,0,0-2.859,3.766l-.049.085a23.983,23.983,0,0,0-2.256,5.824,16.968,16.968,0,0,0-.474,5.8,13.838,13.838,0,0,0,1.255,4.518,10.893,10.893,0,0,0,2.8,3.649,11.2,11.2,0,0,0,4.189,2.2,13.084,13.084,0,0,0,5.329.292,16.255,16.255,0,0,0,5.071-1.394A19.08,19.08,0,0,0-98.7-14.437c.446-.377.885-.781,1.306-1.2l.21-.21.228.191a7.093,7.093,0,0,0,4,1.429,7.865,7.865,0,0,0,1.439-.023,7.872,7.872,0,0,0,3.471-1.236,13.294,13.294,0,0,0,2.626-2.263,20.888,20.888,0,0,0,1.975-2.583l.469-.721.125.851c.036.24.084.483.144.723l.009.026a4.508,4.508,0,0,0,1.563,2.407A4.72,4.72,0,0,0-78.519-16l.058,0c.1,0,.2.008.3.008a5.534,5.534,0,0,0,3.279-1.081,10.045,10.045,0,0,0,.871-.7l.2-.181.216.166a4.743,4.743,0,0,0,2.994.961c.187,0,.384-.007.568-.024a7.559,7.559,0,0,0,2.687-.692,7.947,7.947,0,0,0,2.268-1.683,16.3,16.3,0,0,0,1.949-2.523c.3-.466.624-.988.961-1.549ZM-53.7-9.077c-.2,0-.4-.009-.592-.024a7.031,7.031,0,0,1-2.466-.64,5.6,5.6,0,0,1-1.971-1.548,4.651,4.651,0,0,1-1.02-2.434,4.936,4.936,0,0,1,.775-3.148,6.525,6.525,0,0,1,1.546-1.7,5.7,5.7,0,0,1-2.985-3.8,6.97,6.97,0,0,1-1.337-.358c-.29.479-.569.926-.83,1.331a17.177,17.177,0,0,1-2.029,2.623,8.61,8.61,0,0,1-2.454,1.817,8.187,8.187,0,0,1-2.916.753c-.2.018-.415.026-.621.026a5.445,5.445,0,0,1-3.176-.936c-.237.2-.482.395-.726.57a6.134,6.134,0,0,1-4,1.195l-.067,0a5.38,5.38,0,0,1-2.98-1.187,5.153,5.153,0,0,1-1.787-2.749l-.007-.03s0-.005,0-.008a21.28,21.28,0,0,1-1.6,2.013A13.906,13.906,0,0,1-87.7-14.943a8.5,8.5,0,0,1-3.756,1.338,8.417,8.417,0,0,1-1.554.024,7.894,7.894,0,0,1-4.138-1.394c-.371.361-.753.707-1.139,1.035a19.765,19.765,0,0,1-4.436,2.83,16.858,16.858,0,0,1-5.266,1.45,13.747,13.747,0,0,1-5.587-.314A11.812,11.812,0,0,1-118-12.3a11.542,11.542,0,0,1-2.967-3.864,14.5,14.5,0,0,1-1.313-4.728,17.579,17.579,0,0,1,.489-6.021,24.66,24.66,0,0,1,2.317-5.984l.067-.114a28.04,28.04,0,0,1,2.926-3.857,30.654,30.654,0,0,1,3.958-3.707,26.521,26.521,0,0,1,4.753-2.974,16.841,16.841,0,0,1,5.565-1.619,14.331,14.331,0,0,1,4.1.152v0l.045.011c.071.013.142.026.213.041l.272.054,0,.023A8.448,8.448,0,0,1-95.1-43.825a7.719,7.719,0,0,1,2,1.87,8.12,8.12,0,0,1,1.213,2.378,10.749,10.749,0,0,1,.47,2.452,7.7,7.7,0,0,1-.388,2.994,11.038,11.038,0,0,1-1.251,2.57c-.093.142-.19.283-.29.422q.392-.278.8-.523a8.63,8.63,0,0,1,3.9-1.182c.175-.011.342-.016.508-.016a5.543,5.543,0,0,1,2.623.589c.1-.153.208-.3.316-.45a7.361,7.361,0,0,1,1.495-1.5,4.669,4.669,0,0,1,2.283-.941,3.541,3.541,0,0,1,.376-.02A3.667,3.667,0,0,1-78.4-34.021l.206.216.124.193a4.927,4.927,0,0,1,.669,1.5,3.906,3.906,0,0,1,1.5.427,8.3,8.3,0,0,1,1.035.634c.3.207.58.426.849.653.2-.448.4-.856.6-1.234a11.45,11.45,0,0,1,.777-1.3L-72.6-33a4.693,4.693,0,0,1,3.289-1.869,4.426,4.426,0,0,1,2.915.674,3.99,3.99,0,0,1,1.3,1.344,7.669,7.669,0,0,1,1.109-1.01,5.366,5.366,0,0,1,2.328-1.031l.025,0a4.63,4.63,0,0,1,2.7.33,3.419,3.419,0,0,1,1.738,1.79c.185-.239.376-.47.57-.694a11.747,11.747,0,0,1,2.859-2.384,8.629,8.629,0,0,1,3.895-1.183c.176-.011.342-.016.509-.016a5.042,5.042,0,0,1,3.428,1.143.424.424,0,0,1,.04.034,4.271,4.271,0,0,1,1.3-1.155,5.505,5.505,0,0,1,1.336-.556,4.312,4.312,0,0,1-.208-.946,5.089,5.089,0,0,1,.61-2.842,7.925,7.925,0,0,1,.805-1.346A5.09,5.09,0,0,1-40.5-44.035l.1-.055a4.4,4.4,0,0,1,2.153-.482,4.662,4.662,0,0,1,2.055.525,4.27,4.27,0,0,1,1.7,1.61,4.4,4.4,0,0,1,.6,2.533l-.012.186-.026.14a7.286,7.286,0,0,1-.525,1.694A9.808,9.808,0,0,1-31.277-38.9l.4-.054.4.073a4.487,4.487,0,0,1,.78.221c.089-.056.179-.107.271-.157a4.779,4.779,0,0,1,1.728-.541,4.5,4.5,0,0,1,2.9.653,3.748,3.748,0,0,1,1.825,2.8,4.182,4.182,0,0,1-.07,1.334,4.093,4.093,0,0,1-.671,1.478,9.288,9.288,0,0,0-.475.92c-.128.274-.263.572-.4.888l-.063.144-.153.04a4.594,4.594,0,0,0-3.409,4.436,4.59,4.59,0,0,0,2.4,4.035l.45.244-.8.584a6.6,6.6,0,0,1-3.943,1.343l-.244-.012a4.443,4.443,0,0,1-2.336-.929c-.224.17-.452.332-.68.481a7.871,7.871,0,0,1-4.34,1.282l-.247-.012a6.735,6.735,0,0,1-2.605-.8c-.2.178-.4.351-.6.516A25.45,25.45,0,0,1-43.351-18.3c-.264.72-.554,1.428-.861,2.1a15.919,15.919,0,0,1-1.654,2.837,11.617,11.617,0,0,1-2.355,2.4,9.319,9.319,0,0,1-3.295,1.572,8.213,8.213,0,0,1-2.184.308" transform="translate(122.365 45.249)"/>
      </g>
      <g id="Group_82" data-name="Group 82" transform="translate(15.99 74.445)">
        <path id="Path_75" data-name="Path 75" class="cls-3" d="M-232.652-180.421A56.564,56.564,0,0,1-282.744-210.6l1.2-.636a55.206,55.206,0,0,0,48.89,29.452,55.272,55.272,0,0,0,52.359-37.486l1.288.438a56.631,56.631,0,0,1-53.646,38.409" transform="translate(282.744 219.267)"/>
      </g>
      <g id="Group_83" data-name="Group 83" transform="translate(17.358 0)">
        <path id="Path_76" data-name="Path 76" class="cls-3" d="M-467.067-173.67a55.158,55.158,0,0,0-19.941-25.907,54.922,54.922,0,0,0-31.9-10.126,55.259,55.259,0,0,0-27.748,7.456,55.621,55.621,0,0,0-19.807,19.615l-1.169-.7a56.986,56.986,0,0,1,20.292-20.1,56.622,56.622,0,0,1,28.432-7.641,56.276,56.276,0,0,1,32.685,10.375,56.519,56.519,0,0,1,20.431,26.544Z" transform="translate(567.631 211.063)"/>
      </g>
      <g id="Group_84" data-name="Group 84" transform="translate(40.531 90.981)">
        <path id="Path_77" data-name="Path 77" class="cls-3" d="M-13.37-19.209a1.3,1.3,0,0,0,.853-.624,1.328,1.328,0,0,0,.253-1.035,1.553,1.553,0,0,0-.734-.91l-.458-.3-1.489,2.235.521.347a1.461,1.461,0,0,0,1.054.292m2.058-1.784a2.07,2.07,0,0,1-.365,1.689,2.171,2.171,0,0,1-1.416,1.015,2.6,2.6,0,0,1-1.9-.542l-1.257-.837,2.449-3.676,1.3.865a2.593,2.593,0,0,1,1.189,1.487" transform="translate(16.249 23.345)"/>
      </g>
      <g id="Group_85" data-name="Group 85" transform="translate(46.528 94.327)">
        <path id="Path_78" data-name="Path 78" class="cls-3" d="M-22.1-6.276l-.373.8-1.991-.933-.386.824,1.791.839-.357.761L-25.2-4.828l-.389.83,2.054.962-.37.79-2.947-1.381,1.874-4Z" transform="translate(26.855 7.627)"/>
      </g>
      <g id="Group_86" data-name="Group 86" transform="translate(52.216 96.787)">
        <path id="Path_79" data-name="Path 79" class="cls-3" d="M-9.819-4.257A.381.381,0,0,0-10.046-4a.35.35,0,0,0,.076.344,3.18,3.18,0,0,0,.688.492,2.26,2.26,0,0,1,.8.73,1.148,1.148,0,0,1,.067.966,1.193,1.193,0,0,1-.709.791,1.776,1.776,0,0,1-1.229.009,2.712,2.712,0,0,1-1.578-1.3l.773-.516a2.09,2.09,0,0,0,1.079.986.692.692,0,0,0,.442.013A.375.375,0,0,0-9.4-1.741a.368.368,0,0,0-.064-.35,2.143,2.143,0,0,0-.553-.418,2.828,2.828,0,0,1-.938-.787,1.127,1.127,0,0,1-.071-.987,1.144,1.144,0,0,1,.717-.795,1.818,1.818,0,0,1,1.178.005,2.713,2.713,0,0,1,.8.4,2.371,2.371,0,0,1,.611.637l-.688.542a1.944,1.944,0,0,0-1.008-.766.594.594,0,0,0-.406,0" transform="translate(11.933 5.173)"/>
      </g>
      <g id="Group_87" data-name="Group 87" transform="translate(58.292 98.028)">
        <path id="Path_80" data-name="Path 80" class="cls-3" d="M-13.011-16.542a1.3,1.3,0,0,0,.507-.927,1.328,1.328,0,0,0-.21-1.044,1.554,1.554,0,0,0-1.051-.513l-.544-.081-.4,2.656.619.093a1.462,1.462,0,0,0,1.079-.183m1.105-2.489a2.07,2.07,0,0,1,.386,1.684,2.171,2.171,0,0,1-.851,1.521,2.6,2.6,0,0,1-1.948.314l-1.493-.224.656-4.368,1.544.232a2.594,2.594,0,0,1,1.708.841" transform="translate(15.813 20.104)"/>
      </g>
      <g id="Group_88" data-name="Group 88" transform="translate(65.296 98.74)">
        <path id="Path_81" data-name="Path 81" class="cls-3" d="M-15.022-.166l-.01.878-2.2-.025-.01.91,1.978.022-.01.84-1.978-.022-.01.916,2.268.026-.01.872-3.254-.037.05-4.417Z" transform="translate(18.256 0.202)"/>
      </g>
      <g id="Group_89" data-name="Group 89" transform="translate(74.148 97.679)">
        <path id="Path_82" data-name="Path 82" class="cls-3" d="M-9.6-8.143a.8.8,0,0,0,.065-.483.508.508,0,0,0-.221-.33.5.5,0,0,0-.4-.065q-.407.09-.644.75l-.872-.287a2.451,2.451,0,0,1,.507-.856,1.665,1.665,0,0,1,.867-.443,1.517,1.517,0,0,1,1.059.139,1.224,1.224,0,0,1,.635.873,1.328,1.328,0,0,1-.029.676,4.263,4.263,0,0,1-.455.918l-.6.979,1.7-.374.19.864-3.043.669L-11-5.829l.98-1.574a5.692,5.692,0,0,0,.41-.74" transform="translate(11.673 9.896)"/>
      </g>
      <g id="Group_90" data-name="Group 90" transform="translate(79.744 95.999)">
        <path id="Path_83" data-name="Path 83" class="cls-3" d="M-4.458-7A2.34,2.34,0,0,0-4.28-5.929,2.339,2.339,0,0,0-3.711-5a.687.687,0,0,0,.751.151.687.687,0,0,0,.469-.606A2.337,2.337,0,0,0-2.669-6.53a2.341,2.341,0,0,0-.569-.928.687.687,0,0,0-.751-.151A.687.687,0,0,0-4.458-7m1.78,2.911a1.588,1.588,0,0,1-1.5-.1,2.758,2.758,0,0,1-1.007-1.4A2.756,2.756,0,0,1-5.341-7.31,1.588,1.588,0,0,1-4.274-8.373a1.588,1.588,0,0,1,1.5.1,2.756,2.756,0,0,1,1.007,1.4A2.755,2.755,0,0,1-1.61-5.154,1.587,1.587,0,0,1-2.678-4.092" transform="translate(5.417 8.51)"/>
      </g>
      <g id="Group_91" data-name="Group 91" transform="translate(84.537 93.864)">
        <path id="Path_84" data-name="Path 84" class="cls-3" d="M0-3.849l1.585-.829L3.632-.764l-.84.44L1.134-3.494.39-3.1Z" transform="translate(0 4.678)"/>
      </g>
      <g id="Group_92" data-name="Group 92" transform="translate(88.955 91.174)">
        <path id="Path_85" data-name="Path 85" class="cls-3" d="M-9.7-11.118A.722.722,0,0,0-10-10.7a.572.572,0,0,0,.092.485.668.668,0,0,0,.426.286.626.626,0,0,0,.5-.1.668.668,0,0,0,.291-.414.6.6,0,0,0-.1-.485.689.689,0,0,0-.409-.294.589.589,0,0,0-.492.1M-10.49-12.5a.773.773,0,0,0-.368.586,1.391,1.391,0,0,0,.2.773,1.58,1.58,0,0,1,.569-.713,1.42,1.42,0,0,1,1.081-.251,1.438,1.438,0,0,1,.951.654,1.385,1.385,0,0,1,.243,1.14,1.606,1.606,0,0,1-.7.968,1.73,1.73,0,0,1-.771.311,1.306,1.306,0,0,1-.724-.112,2.978,2.978,0,0,1-1.2-1.077,3.456,3.456,0,0,1-.48-.962,1.821,1.821,0,0,1-.074-.827,1.659,1.659,0,0,1,.731-1.146,1.9,1.9,0,0,1,.539-.259,2.025,2.025,0,0,1,.462-.091,3.761,3.761,0,0,1,.412.009l.008.837q-.053-.01-.148-.021a1.4,1.4,0,0,0-.33.027.978.978,0,0,0-.4.153" transform="translate(11.783 13.512)"/>
      </g>
    </g>
  </g>
</svg>
