<svg xmlns="http://www.w3.org/2000/svg" xmlns:xlink="http://www.w3.org/1999/xlink" viewBox="593.551 141.32 178.096 152.827">
  <defs>
    <style>
      .cls-1 {
        fill: none;
      }

      .cls-2 {
        clip-path: url(#clip-path);
      }

      .cls-3 {
        fill: #fff;
      }
    </style>
    <clipPath id="clip-path">
      <path id="Path_18" data-name="Path 18" class="cls-1" d="M0-639.468H178.1v152.827H0Z" transform="translate(0 639.468)"/>
    </clipPath>
  </defs>
  <g id="Group_21" data-name="Group 21" transform="translate(593.551 141.32)">
    <g id="Group_20" data-name="Group 20" class="cls-2">
      <g id="Group_3" data-name="Group 3" transform="translate(3.36 55.377)">
        <path id="Path_1" data-name="Path 1" class="cls-3" d="M-383.364-42.485c-.057.335-.119.632-.185.889l-.624,2.04a30.494,30.494,0,0,1-1.482,3.448,22.076,22.076,0,0,1-1.732,2.887,9.755,9.755,0,0,1-1.785,1.954,2.633,2.633,0,0,1-1.638.694,1,1,0,0,1-.494-.2,1.467,1.467,0,0,1-.434-.541,2.688,2.688,0,0,1-.238-.913,3.993,3.993,0,0,1,.1-1.278,17.214,17.214,0,0,1,.78-2.339q.52-1.277,1.179-2.569t1.42-2.5a15.736,15.736,0,0,1,1.578-2.119,7.279,7.279,0,0,1,1.635-1.4,2.1,2.1,0,0,1,1.538-.331.631.631,0,0,1,.383.5,3.9,3.9,0,0,1,.091.836,5.536,5.536,0,0,1-.087.949m-28.73,24.214a9.686,9.686,0,0,1-2.566,1.686,2.394,2.394,0,0,1-1.569.263.721.721,0,0,1-.533-.6,1.476,1.476,0,0,1,.413-.96,3.256,3.256,0,0,1,1.211-.953l0,.046,4.763-2.44.467.419a14.483,14.483,0,0,1-2.19,2.538m-54.441-10.108a.393.393,0,0,1,.092-.222l-.032.145a13.561,13.561,0,0,1,1.591-3.318,16.867,16.867,0,0,1,2.044-2.593,6.316,6.316,0,0,1,1.8-1.369q.782-.342.854.307a2.329,2.329,0,0,1-.1.787,7.625,7.625,0,0,1-.515,1.3,21.736,21.736,0,0,1-2.46,3.106,16.525,16.525,0,0,1-3.215,2.625,5.852,5.852,0,0,1-.059-.768m52.316-5.654a.4.4,0,0,1,.094-.221l-.033.144a13.646,13.646,0,0,1,1.59-3.319,16.792,16.792,0,0,1,2.044-2.592,6.335,6.335,0,0,1,1.8-1.369q.786-.342.856.307a2.389,2.389,0,0,1-.1.787,7.672,7.672,0,0,1-.518,1.3,21.529,21.529,0,0,1-2.458,3.107,16.543,16.543,0,0,1-3.214,2.625,6.243,6.243,0,0,1-.06-.769m33.911,1.724c-.664.4-1.036.25-1.111-.453a2.89,2.89,0,0,1,.115-.882c.1-.4.232-.846.4-1.334q.344-1.164.916-2.611t1.149-2.849q.577-1.4,1.112-2.538a14.784,14.784,0,0,1,.9-1.694,2.328,2.328,0,0,0,.4-.818,2.272,2.272,0,0,0,.038-.733,1.71,1.71,0,0,0-.891-1.289,2.723,2.723,0,0,0-1.78-.395,3.075,3.075,0,0,0-1.111.355,2.83,2.83,0,0,0-.965.856l0,.046-.413.515a7.314,7.314,0,0,0-1.112-.725,3.945,3.945,0,0,0-1.126-.442,9.858,9.858,0,0,0-3.289,1.083,15.892,15.892,0,0,0-3.1,2.166,21.716,21.716,0,0,0-2.736,2.926,21.919,21.919,0,0,0-2.154,3.332,15.788,15.788,0,0,0-1.268,3.243q-.357.534-.775,1.088a28.375,28.375,0,0,1-2.042,2.4,23.3,23.3,0,0,1-2.719,2.431l-.019-1.031.143-.438c.081-.385.205-.852.364-1.4s.339-1.139.536-1.772.411-1.272.639-1.924.463-1.272.713-1.862q.519-1.278,1.1-2.42t1.006-1.987l.644-1.431,0,.046c.07-.226.13-.445.188-.655a1.85,1.85,0,0,0,.043-.685,1.482,1.482,0,0,0-.815-1.25,2.879,2.879,0,0,0-1.648-.268,3.93,3.93,0,0,0-1.543.519A2.483,2.483,0,0,0-401.6-43.92l-.043.051a19.2,19.2,0,0,0-2.229,5.008c-.24.8-.473,1.608-.706,2.43q-.518.8-1.064,1.613a26.77,26.77,0,0,1-2.432,3.127,12.6,12.6,0,0,1-2.625,2.234,4.53,4.53,0,0,1-2.833.728q-1.207-.293-1.391-2.01a21.709,21.709,0,0,0,4.988-3.169,17.757,17.757,0,0,0,3.79-4.261,7.141,7.141,0,0,0,.827-1.9,5.18,5.18,0,0,0,.169-1.921,3.089,3.089,0,0,0-1.068-2.068,3.945,3.945,0,0,0-2.893-.7,8.28,8.28,0,0,0-3.752,1.133,12.426,12.426,0,0,0-3.037,2.536,17.961,17.961,0,0,0-2.351,3.447,26.5,26.5,0,0,0-1.223,2.65,2.965,2.965,0,0,1-.57.315,2.774,2.774,0,0,1-1.772.121,5.062,5.062,0,0,1-1.365-.674,2.169,2.169,0,0,1-.9-1.147,12,12,0,0,0,1.533-2.538,3.747,3.747,0,0,0,.355-1.705,1.3,1.3,0,0,0-.776-1.113,2.944,2.944,0,0,0-1.71-.168,3.906,3.906,0,0,0-1.679.769,7.028,7.028,0,0,0-1.48,1.5,5.528,5.528,0,0,0-.9,1.881,3.278,3.278,0,0,0,.015,1.878,3.575,3.575,0,0,1-.431,2.536,18.7,18.7,0,0,1-1.8,2.918,22.5,22.5,0,0,1-2.125,2.484,17.014,17.014,0,0,1-1.365,1.274q-1,.766-1.467.346a2.04,2.04,0,0,1-.568-1.346,5.788,5.788,0,0,1-.015-1.008c.023-.362.057-.711.1-1.043s.089-.637.136-.906a3.942,3.942,0,0,1,.146-.6q.359-1.025.759-2.1t.812-2.061q.41-.983.812-1.825a12.411,12.411,0,0,1,.766-1.4,2.492,2.492,0,0,0,.4-1.546,1.741,1.741,0,0,0-.868-1.292,2.641,2.641,0,0,0-1.757-.4,2.991,2.991,0,0,0-2.124,1.216,13.168,13.168,0,0,0-.812,1.379q-.488.922-1,2.1t-1.038,2.555q-.533,1.372-1,2.692a16.063,16.063,0,0,0-.347,1.584c-.463.8-.936,1.552-1.422,2.246a11.518,11.518,0,0,1-1.626,1.914q-.79.719-1.395.361a1.116,1.116,0,0,1-.48-.981,5.3,5.3,0,0,1,.2-1.572,16.579,16.579,0,0,1,.644-1.878q.407-1.007.85-1.9a15.923,15.923,0,0,1,.887-1.575,7.531,7.531,0,0,1,.737-1,.606.606,0,0,0,.033-.779,3.693,3.693,0,0,0-.781-.924,12.51,12.51,0,0,0-1.129-.888,7.935,7.935,0,0,0-1.005-.62,2.262,2.262,0,0,0-1.268-.215,10.69,10.69,0,0,0-1.548.238,6.068,6.068,0,0,1-.831.136l-.928.1a13.476,13.476,0,0,0,.678-1.552,2.826,2.826,0,0,0,.2-1.22,3.023,3.023,0,0,0-.512-1.259,1.609,1.609,0,0,0-1.329-.561,2.974,2.974,0,0,0-1.435.625,6.564,6.564,0,0,0-1.334,1.342,8.373,8.373,0,0,0-.991,1.7,3.9,3.9,0,0,0-.35,1.751,3.892,3.892,0,0,0,.225,1.432,3.348,3.348,0,0,0,.6,1.016l-.856,1.642-.119.213q-1.025,1.634-2.175,3.346a26.473,26.473,0,0,1-2.432,3.126,12.6,12.6,0,0,1-2.623,2.234,4.525,4.525,0,0,1-2.833.729q-1.206-.293-1.391-2.01a21.853,21.853,0,0,0,4.988-3.169,17.829,17.829,0,0,0,3.79-4.26,7.241,7.241,0,0,0,.827-1.9,5.158,5.158,0,0,0,.168-1.92,3.086,3.086,0,0,0-1.067-2.068,3.945,3.945,0,0,0-2.894-.7,8.271,8.271,0,0,0-3.751,1.133,12.379,12.379,0,0,0-3.037,2.535,17.944,17.944,0,0,0-2.353,3.448,25.885,25.885,0,0,0-1.654,3.818c-.018.07-.035.138-.053.207a23.166,23.166,0,0,1-1.742,2.288,22.294,22.294,0,0,1-3.783,3.461,21.282,21.282,0,0,1-4.433,2.451,19.488,19.488,0,0,1-4.909,1.282,11.206,11.206,0,0,1-4.3-.193,8.319,8.319,0,0,1-3.252-1.644,8.439,8.439,0,0,1-2.184-2.816,11.351,11.351,0,0,1-1.04-3.763,16.431,16.431,0,0,1,.327-5.224,24.026,24.026,0,0,1,2.063-5.694,32.022,32.022,0,0,1,6.008-8.281,20.473,20.473,0,0,1,7.782-4.9,8.206,8.206,0,0,1,1.477-.465q.713-.148,1.361-.217a4.844,4.844,0,0,1,3.422.57,3.113,3.113,0,0,1,1.252,2.259,5.221,5.221,0,0,1-.153,1.825,8.218,8.218,0,0,1-.776,1.962,11.746,11.746,0,0,1-1.3,1.9,10.683,10.683,0,0,1-1.678,1.637,1.472,1.472,0,0,0-.689,1.437,2.28,2.28,0,0,0,.475,1.146,2.975,2.975,0,0,0,1.009.854,3.156,3.156,0,0,0,1.284.354,1.947,1.947,0,0,0,1.295-.4,16.2,16.2,0,0,0,2.367-1.993,15.875,15.875,0,0,0,1.989-2.446,11.361,11.361,0,0,0,1.307-2.678,6.984,6.984,0,0,0,.361-2.739,10.847,10.847,0,0,0-.483-2.53,7.591,7.591,0,0,0-1.133-2.226,7.006,7.006,0,0,0-1.828-1.7,8.21,8.21,0,0,0-2.58-1.06l.047-.005a15.979,15.979,0,0,0-4.862-.226,19.248,19.248,0,0,0-6.4,1.865,32.24,32.24,0,0,0-5.806,3.633,37.859,37.859,0,0,0-4.9,4.592,34.184,34.184,0,0,0-3.6,4.733,29.677,29.677,0,0,0-2.809,7.253,20.318,20.318,0,0,0-.586,6.968A16.2,16.2,0,0,0-502.2-21.4a12.231,12.231,0,0,0,3.143,4.1,12.566,12.566,0,0,0,4.73,2.471,15.122,15.122,0,0,0,6.209.314,19.256,19.256,0,0,0,6.089-1.668,23.093,23.093,0,0,0,5.229-3.335,26.96,26.96,0,0,0,4.119-4.368c.4,2.516,2.2,3.873,5.4,4.068a8.082,8.082,0,0,0,1.5-.022,8.117,8.117,0,0,0,3.6-1.28,15.424,15.424,0,0,0,3.05-2.631,25.546,25.546,0,0,0,2.588-3.427q1.183-1.863,2.159-3.707a4.649,4.649,0,0,0,.449-1.029l.433-.8.663-1.246c.307-.034.572-.069.787-.109s.443-.087.689-.145q.69-.119,1.246-.2a1.572,1.572,0,0,1,.849.049.51.51,0,0,1,.272.558,3.42,3.42,0,0,1-.5,1.275,20.022,20.022,0,0,0-1.6,3.649,6.864,6.864,0,0,0-.122,3.864,3.63,3.63,0,0,0,1.267,1.952,3.93,3.93,0,0,0,2.184.868,4.983,4.983,0,0,0,3.251-.985,12.744,12.744,0,0,0,2.776-2.789c.121-.165.239-.338.359-.51a5.341,5.341,0,0,0,1.164,2.014,4.024,4.024,0,0,0,3.5,1.124,7.684,7.684,0,0,0,2.742-.7,8.282,8.282,0,0,0,2.346-1.755,19.619,19.619,0,0,0,2.327-3.023q1.186-1.843,2.726-4.545a6.7,6.7,0,0,0,4.934,1.768,5.634,5.634,0,0,0,1.306-.3c-.009.054-.02.109-.028.163a7.076,7.076,0,0,0-.055,1.883q.442,4.085,5.453,4.389a8.054,8.054,0,0,0,1.5-.021,8.1,8.1,0,0,0,3.6-1.28,15.437,15.437,0,0,0,3.051-2.63c.217-.24.427-.487.636-.738l-.185.783q-.272.968-.584,1.988c-.207.681-.405,1.311-.592,1.9l-2.236,1.04q-1.882.86-3.648,1.662a33.329,33.329,0,0,0-3.051,1.551,6.645,6.645,0,0,0-2.264,2.075,3.379,3.379,0,0,0-.57,2.128,2.973,2.973,0,0,0,.662,1.549,4.211,4.211,0,0,0,1.487,1.155,6.111,6.111,0,0,0,2.148.542,7.39,7.39,0,0,0,2.6-.279,9.171,9.171,0,0,0,3.284-1.554,12.242,12.242,0,0,0,2.5-2.547,18.177,18.177,0,0,0,1.883-3.233,38.546,38.546,0,0,0,1.435-3.653,31.72,31.72,0,0,0,3.6-2.573,24.355,24.355,0,0,0,3.128-3.155q.492,2.462,3.663,2.775a7.261,7.261,0,0,0,4.027-1.187,13.462,13.462,0,0,0,3.344-3.18,5.791,5.791,0,0,0,1.042,2.26,2.592,2.592,0,0,0,1.846,1,5.571,5.571,0,0,0,3.326-1.157.043.043,0,0,1,.015-.011,6.663,6.663,0,0,1-.981-2.036" transform="translate(503.757 55.827)"/>
      </g>
      <g id="Group_4" data-name="Group 4" transform="translate(109.776 56.289)">
        <path id="Path_2" data-name="Path 2" class="cls-3" d="M-1.405-17.77a2.626,2.626,0,0,0,.908.793,2.945,2.945,0,0,0,1.165.344,2.686,2.686,0,0,0,1.245-.2,3.7,3.7,0,0,0,1.539-1.411,6.213,6.213,0,0,0,.921-2.331,2.626,2.626,0,0,0-.327-1.513,2.446,2.446,0,0,0-.97-.93,2.942,2.942,0,0,0-1.3-.328,2.626,2.626,0,0,0-1.284.279,3.554,3.554,0,0,0-1.077.892A7.67,7.67,0,0,0-1.345-20.9a3.646,3.646,0,0,0-.49,1.98,2.384,2.384,0,0,0,.429,1.151" transform="translate(1.847 23.351)"/>
      </g>
      <g id="Group_5" data-name="Group 5" transform="translate(137.006 67.936)">
        <path id="Path_3" data-name="Path 3" class="cls-3" d="M-88.265-26.933a.317.317,0,0,1,.074-.175l-.026.114a10.768,10.768,0,0,1,1.255-2.615,13.2,13.2,0,0,1,1.611-2.042,4.96,4.96,0,0,1,1.419-1.079q.619-.27.673.242a1.818,1.818,0,0,1-.081.619,5.957,5.957,0,0,1-.407,1.025A16.911,16.911,0,0,1-85.684-28.4a12.976,12.976,0,0,1-2.535,2.068,5.32,5.32,0,0,1-.046-.6m10-3.5c-.045-.414-.189-.609-.433-.582a1.806,1.806,0,0,0-1.062.781q-.822,1.309-1.745,2.686a21.077,21.077,0,0,1-1.918,2.464,9.92,9.92,0,0,1-2.067,1.758,3.573,3.573,0,0,1-2.233.575q-.949-.231-1.1-1.584a17.163,17.163,0,0,0,3.93-2.5A13.976,13.976,0,0,0-81.9-30.193a5.668,5.668,0,0,0,.654-1.5,4.113,4.113,0,0,0,.132-1.513,2.435,2.435,0,0,0-.844-1.629,3.106,3.106,0,0,0-2.279-.55,6.513,6.513,0,0,0-2.955.894,9.743,9.743,0,0,0-2.393,2,14.1,14.1,0,0,0-1.852,2.716,20.288,20.288,0,0,0-1.3,3.009c-.081.3-.151.584-.213.86-.076.124-.151.248-.228.372q-.519.833-1.05,1.575a11.262,11.262,0,0,1-.962,1.2q-1.031,1.072-1.407.687t.336-2.718c.076-.2.166-.462.268-.769a7.061,7.061,0,0,1,.366-.891q.294-.7.6-1.49t.549-1.595A14.529,14.529,0,0,0-94.1-31.1a4.76,4.76,0,0,0,.077-1.339,1.6,1.6,0,0,0-.529-1.128,2.228,2.228,0,0,0-1.757-.513,5.863,5.863,0,0,0-2.62,1.1,17.106,17.106,0,0,0-2.676,2.286,6.458,6.458,0,0,0-.195-1.292,1.725,1.725,0,0,0-.44-.823,2.343,2.343,0,0,0-1.787-.435,5.57,5.57,0,0,0-2.254.891,16.015,16.015,0,0,0-2.476,1.914A2.539,2.539,0,0,0-109-31.724a1.45,1.45,0,0,0-.929-.732,2.066,2.066,0,0,0-1.726.3,3.1,3.1,0,0,0-1.131,1.343c-.292.714-.562,1.454-.823,2.208a6.57,6.57,0,0,1,.439,2.367,6.625,6.625,0,0,1-2.5,5.181c-.138.7-.242,1.315-.3,1.838a.847.847,0,0,0,.159.612,1.648,1.648,0,0,0,.512.462,2.373,2.373,0,0,0,.714.275,2.448,2.448,0,0,0,.763.047,1.145,1.145,0,0,0,1.088-.9l0,.037c.064-.3.174-.734.321-1.293s.33-1.175.541-1.851.44-1.4.69-2.167.509-1.522.773-2.267a4.487,4.487,0,0,1,.485-1,8.892,8.892,0,0,1,.71-.965,10.477,10.477,0,0,1,.812-.865,9.144,9.144,0,0,1,.762-.656q.846-.722,1.26-.322a1.292,1.292,0,0,1,.18,1.313l-.734,2.115q-.566,1.615-1.073,3.242a21.088,21.088,0,0,0-.759,3.432.716.716,0,0,0,.194.589,2.148,2.148,0,0,0,.564.438,2.6,2.6,0,0,0,.751.271,2.656,2.656,0,0,0,.819.041,1.314,1.314,0,0,0,.724-.318,1.828,1.828,0,0,0,.472-.589q.13-.529.451-1.657t.672-2.348a7.159,7.159,0,0,1,.369-1.04c.157-.363.325-.762.5-1.2.141-.288.289-.624.446-1.01s.3-.749.439-1.083a6.836,6.836,0,0,1,1.116-1.491,14.75,14.75,0,0,1,1.293-1.212q.849-.721,1.278-.324t.161,1.314l-.618,1.806q-.317.849-.662,1.755t-.585,1.784a17.073,17.073,0,0,0-.372,1.687,4.5,4.5,0,0,0-.027,1.464,1.882,1.882,0,0,0,1.131,1.395,3.956,3.956,0,0,0,1.931.235,6.214,6.214,0,0,0,1.851-.515,5.413,5.413,0,0,0,1.44-.877A10.534,10.534,0,0,0-93.5-22c.182-.257.357-.525.534-.8q.734,2.4,4.121,2.608a6.316,6.316,0,0,0,1.182-.018,6.4,6.4,0,0,0,2.834-1.009,12.164,12.164,0,0,0,2.4-2.073,20.209,20.209,0,0,0,2.038-2.7q.933-1.469,1.7-2.922a2.572,2.572,0,0,0,.428-1.526" transform="translate(115.984 35.392)"/>
      </g>
      <g id="Group_6" data-name="Group 6" transform="translate(129.601 73.501)">
        <path id="Path_4" data-name="Path 4" class="cls-3" d="M-22.838-11.418A3.586,3.586,0,0,0-26.425-15a3.586,3.586,0,0,0-3.585,3.586,3.587,3.587,0,0,0,3.585,3.587,3.587,3.587,0,0,0,3.587-3.587" transform="translate(30.01 15.004)"/>
      </g>
      <g id="Group_7" data-name="Group 7" transform="translate(133.646 64.574)">
        <path id="Path_5" data-name="Path 5" class="cls-3" d="M-2.8-61.937a3.351,3.351,0,0,0,.618,2.129A4.111,4.111,0,0,0-.916-58.65a4.825,4.825,0,0,0,1.46.569,4.921,4.921,0,0,0,1.558.09,3.6,3.6,0,0,0,2.871-1.842l.261-.476.409.353a4.754,4.754,0,0,0,.8.552,5.127,5.127,0,0,0,1.47.537,5.133,5.133,0,0,0,1.583.078,3.839,3.839,0,0,0,2.076-.907,4.31,4.31,0,0,0,1.088-1.387l.319-.66.436.518a4.213,4.213,0,0,0,1.67,1.2,6.456,6.456,0,0,0,3.126.4,8.68,8.68,0,0,0,2.591-.713,8.473,8.473,0,0,0,1.709-.98l.229-.175.253.144a8.331,8.331,0,0,0,3.652,1,8.844,8.844,0,0,0,1.624-.024,8.866,8.866,0,0,0,3.918-1.4,14.674,14.674,0,0,0,2.9-2.494,22.811,22.811,0,0,0,2.29-3.03c.646-1.016,1.243-2.043,1.778-3.052a4.979,4.979,0,0,0,.723-2.994,2.944,2.944,0,0,0-2.529-2.781l-.32-.04-.059-.318a4.9,4.9,0,0,0-1.624-2.859A5.207,5.207,0,0,0,31.8-80.511c-.168,0-.344.005-.531.017A9,9,0,0,0,27.2-79.26,12.315,12.315,0,0,0,24.331-76.9l-.415.463-.295-.549a3.766,3.766,0,0,0-.917-1.12,4.726,4.726,0,0,0-3.615-1.073,8.31,8.31,0,0,0-3.756,1.517l-.37.258-.25-.172a4.9,4.9,0,0,0-3.343-.77A7.925,7.925,0,0,0,8.077-77.1l-.37.234-.235-.146a4.2,4.2,0,0,0-1.046-.466l-.112-.03a4.592,4.592,0,0,0-3.705.659A5.561,5.561,0,0,0,.6-74.443l-.026.063-.07.174a7.027,7.027,0,0,1,2.429,5.33A7.1,7.1,0,0,1-2.8-61.937m4.4,4.849a5.9,5.9,0,0,1-1.247-.136A5.724,5.724,0,0,1-1.366-57.9,4.971,4.971,0,0,1-2.9-59.3a4.212,4.212,0,0,1-.757-2.938l.059-.466.33-.046a6.214,6.214,0,0,0,5.315-6.128A6.164,6.164,0,0,0-.3-73.728l-.255-.2.119-.3c.063-.165.128-.327.193-.485l.029-.073a6.443,6.443,0,0,1,2.325-2.783,5.461,5.461,0,0,1,4.406-.786l.15.04a5.051,5.051,0,0,1,1.027.424,8.677,8.677,0,0,1,3.579-1.326,5.823,5.823,0,0,1,3.677.754A9.091,9.091,0,0,1,19-80.053a5.585,5.585,0,0,1,4.267,1.272,4.612,4.612,0,0,1,.814.872,13.013,13.013,0,0,1,2.68-2.105,9.884,9.884,0,0,1,4.458-1.356c.209-.012.4-.018.584-.018A6.053,6.053,0,0,1,35.914-80a5.783,5.783,0,0,1,1.848,3.061,3.807,3.807,0,0,1,2.979,3.5,5.822,5.822,0,0,1-.825,3.51c-.54,1.019-1.151,2.066-1.807,3.1a23.564,23.564,0,0,1-2.379,3.147,15.646,15.646,0,0,1-3.069,2.642,9.743,9.743,0,0,1-4.3,1.532,9.855,9.855,0,0,1-1.78.028,9.4,9.4,0,0,1-3.776-.971,9.722,9.722,0,0,1-1.65.914,9.586,9.586,0,0,1-2.854.784,7.327,7.327,0,0,1-3.549-.46,5.14,5.14,0,0,1-1.584-1,5.282,5.282,0,0,1-1.03,1.178,4.707,4.707,0,0,1-2.552,1.112,5.979,5.979,0,0,1-1.853-.09,6.007,6.007,0,0,1-1.721-.63,6,6,0,0,1-.54-.34A4.492,4.492,0,0,1,2.2-57.12a5.235,5.235,0,0,1-.592.032" transform="translate(3.681 81.388)"/>
      </g>
      <g id="Group_8" data-name="Group 8" transform="translate(0 52.016)">
        <path id="Path_6" data-name="Path 6" class="cls-3" d="M-93.121-34.435a6.285,6.285,0,0,0-.658.039c-.322.035-.673.091-1.041.168a4.769,4.769,0,0,0-.868.277l-.207.078a17.258,17.258,0,0,0-6.511,4.12,28.815,28.815,0,0,0-5.367,7.406,20.648,20.648,0,0,0-1.77,4.875,13.155,13.155,0,0,0-.273,4.159,8.068,8.068,0,0,0,.721,2.653,5.058,5.058,0,0,0,1.317,1.707,4.925,4.925,0,0,0,1.961.975,7.958,7.958,0,0,0,3.007.109,16.213,16.213,0,0,0,4.069-1.061A17.919,17.919,0,0,0-95.01-11a18.79,18.79,0,0,0,3.21-2.938,18.968,18.968,0,0,0,1.214-1.554,29.4,29.4,0,0,1,1.8-4.125,22.378,22.378,0,0,1,1.421-2.333q-.351.268-.71.514a5.292,5.292,0,0,1-3.435,1,6.5,6.5,0,0,1-2.621-.729,6.313,6.313,0,0,1-2.135-1.806A5.6,5.6,0,0,1-97.4-25.786a4.814,4.814,0,0,1,2.017-4.486,7.463,7.463,0,0,0,1.1-1.091,8.5,8.5,0,0,0,.934-1.364,4.964,4.964,0,0,0,.464-1.165,2.414,2.414,0,0,0,.081-.528,3.1,3.1,0,0,0-.319-.014m52.158,18.468.349.147a8.435,8.435,0,0,0,2.231.6l.313.04.063.306a6.79,6.79,0,0,0,4.265,5.111l.758.3-.669.465a8.4,8.4,0,0,0-2.451,2.483,5.778,5.778,0,0,0-.919,3.694A5.387,5.387,0,0,0-35.835.016,6.67,6.67,0,0,0-33.482,1.86a8.551,8.551,0,0,0,3.019.779,9.836,9.836,0,0,0,3.444-.356A11.677,11.677,0,0,0-22.877.311a14.793,14.793,0,0,0,3-3.061,20.89,20.89,0,0,0,2.14-3.673c.423-.934.823-1.915,1.185-2.911l.05-.136.122-.08a33.892,33.892,0,0,0,3-2.216c.338-.28.677-.579,1.01-.888l.248-.232.286.183a8.015,8.015,0,0,0,3.418,1.115l.248.012a9.732,9.732,0,0,0,5.375-1.588c.383-.25.764-.524,1.133-.82l.292-.233.276.248a5.028,5.028,0,0,0,2.934,1.273l.244.011a8.034,8.034,0,0,0,4.787-1.633,7.065,7.065,0,0,1-3.117-5.862A7.073,7.073,0,0,1,8.8-26.95c.161-.364.316-.709.469-1.031a13.068,13.068,0,0,1,.7-1.351,4.727,4.727,0,0,0,.78-1.7,4.8,4.8,0,0,0,.078-1.519,4.2,4.2,0,0,0-2.05-3.133,5.209,5.209,0,0,0-3.358-.754,5.545,5.545,0,0,0-2.013.632,5.276,5.276,0,0,0-.48.291l-.2.133-.218-.09a5.457,5.457,0,0,0-1.1-.334l-.393-.073-.4.054a12.412,12.412,0,0,0-4.112,1.348c-.4.212-.813.453-1.227.718l-1.754,1.121.087-.029-1.4,1.351c-.285.275-.543.534-.787.792l-.61.644-.141-.876a4.258,4.258,0,0,0-.12-.524l-.138-.478.492-.077a5.262,5.262,0,0,0,.859-.211l1.7-.572,1.258-1.821c.014-.021.031-.042.044-.064a8.671,8.671,0,0,0,1.295-3.255l.03-.161.009-.165A5.094,5.094,0,0,0-4.571-41a4.927,4.927,0,0,0-1.948-1.847,5.432,5.432,0,0,0-2.39-.608h-.139a5.074,5.074,0,0,0-2.342.555l-.1.054a6.064,6.064,0,0,0-1.822,1.545,9.988,9.988,0,0,0-1,1.674,6.028,6.028,0,0,0-.736,3.351,4.933,4.933,0,0,0,.4,1.505l.23.508-.548.1A6.462,6.462,0,0,0-17-33.4a4.911,4.911,0,0,0-1.754,1.7l-.3.485-.393-.411c-.12-.126-.249-.249-.383-.365a5.959,5.959,0,0,0-4.049-1.325c-.207,0-.413.007-.634.02a10.765,10.765,0,0,0-4.861,1.474,14.985,14.985,0,0,0-3.644,3.038,19.892,19.892,0,0,0-1.23,1.566l-.577.815-.209-.977A3.76,3.76,0,0,0-37.16-30.04a5.384,5.384,0,0,0-3.138-.372l-.03.005a6.357,6.357,0,0,0-2.758,1.227,9.553,9.553,0,0,0-1.774,1.726l-.468.591-.282-.7A4.386,4.386,0,0,0-47.336-29.6a5.115,5.115,0,0,0-3.365-.776,5.469,5.469,0,0,0-3.829,2.176l-.054.073a14.785,14.785,0,0,0-.981,1.651c-.34.642-.676,1.346-1.025,2.153l-.249.574-.456-.429c-.051-.049-.1-.1-.16-.147A15.165,15.165,0,0,0-58.8-25.378a10.32,10.32,0,0,0-1.293-.794,4.507,4.507,0,0,0-1.991-.5l-.358-.01-.063-.352a5.562,5.562,0,0,0-.85-2.044L-63.5-29.3l-.185-.187a4.087,4.087,0,0,0-2.945-1.3,3.833,3.833,0,0,0-.413.022,5.426,5.426,0,0,0-2.653,1.1,9.149,9.149,0,0,0-1.837,1.842c-.216.287-.42.59-.607.9l-.231.382-.377-.238a6.38,6.38,0,0,0-3.451-.879c-.206,0-.413.007-.633.02a10.767,10.767,0,0,0-4.86,1.475,14.913,14.913,0,0,0-3.644,3.039A20.526,20.526,0,0,0-88.008-19.2a28.42,28.42,0,0,0-1.767,4.059l-.021.057-.035.051a20.458,20.458,0,0,1-1.306,1.679A19.836,19.836,0,0,1-94.5-10.285a18.828,18.828,0,0,1-3.914,2.166A17.1,17.1,0,0,1-102.7-7a8.819,8.819,0,0,1-3.343-.13,5.815,5.815,0,0,1-2.3-1.15,5.932,5.932,0,0,1-1.543-2,8.938,8.938,0,0,1-.8-2.942,14.038,14.038,0,0,1,.288-4.438,21.59,21.59,0,0,1,1.847-5.086,29.648,29.648,0,0,1,5.534-7.634A18.107,18.107,0,0,1-96.176-34.7l.152-.058A5.686,5.686,0,0,1-95-35.086c.4-.082.773-.143,1.127-.181a6.825,6.825,0,0,1,.75-.044,2.677,2.677,0,0,1,.826.1l.095.032.071.068a.7.7,0,0,1,.193.474,2.792,2.792,0,0,1-.1.959,5.83,5.83,0,0,1-.546,1.373A9.393,9.393,0,0,1-93.6-30.8a8.39,8.39,0,0,1-1.251,1.23,3.966,3.966,0,0,0-1.676,3.7,4.754,4.754,0,0,0,.966,2.377,5.423,5.423,0,0,0,1.84,1.558,5.636,5.636,0,0,0,2.272.632c.1.006.19.009.283.009a4.454,4.454,0,0,0,2.6-.85,18.641,18.641,0,0,0,2.71-2.283,18.573,18.573,0,0,0,2.3-2.828,14.032,14.032,0,0,0,1.59-3.262,9.53,9.53,0,0,0,.481-3.7,13.519,13.519,0,0,0-.6-3.106,10.126,10.126,0,0,0-1.5-2.952,9.576,9.576,0,0,0-2.472-2.309,10.75,10.75,0,0,0-3.354-1.39l.015-.061-.052-.007-.009.043a18.567,18.567,0,0,0-5.612-.259,21.845,21.845,0,0,0-7.219,2.1,34.862,34.862,0,0,0-6.253,3.913,40.61,40.61,0,0,0-5.226,4.894,37.062,37.062,0,0,0-3.857,5.08l-.066.115a32.354,32.354,0,0,0-3.043,7.857,22.89,22.89,0,0,0-.64,7.82,18.667,18.667,0,0,0,1.693,6.095,14.7,14.7,0,0,0,3.777,4.923,15.107,15.107,0,0,0,5.65,2.965,17.651,17.651,0,0,0,7.189.394A21.928,21.928,0,0,0-96.232.008a25.739,25.739,0,0,0,5.786-3.692c.6-.509,1.194-1.053,1.761-1.622l.284-.283.308.257A9.569,9.569,0,0,0-82.7-3.4a10.61,10.61,0,0,0,1.942-.03A10.619,10.619,0,0,0-76.076-5.1a17.933,17.933,0,0,0,3.543-3.052,28.177,28.177,0,0,0,2.664-3.485l.633-.972.168,1.148c.049.324.114.651.194.975l.012.035a6.081,6.081,0,0,0,2.108,3.247A6.368,6.368,0,0,0-63.217-5.8l.079,0c.13.006.267.011.4.011A7.466,7.466,0,0,0-58.313-7.24a13.547,13.547,0,0,0,1.174-.947l.272-.244.291.224a6.4,6.4,0,0,0,4.039,1.3c.253,0,.517-.01.767-.032a10.2,10.2,0,0,0,3.625-.933,10.72,10.72,0,0,0,3.059-2.27,21.989,21.989,0,0,0,2.629-3.4c.407-.629.842-1.332,1.3-2.09ZM-29.737,3.547c-.266,0-.534-.011-.8-.032a9.485,9.485,0,0,1-3.327-.863A7.56,7.56,0,0,1-36.522.562,6.274,6.274,0,0,1-37.9-2.721a6.659,6.659,0,0,1,1.045-4.247,8.8,8.8,0,0,1,2.085-2.293,7.692,7.692,0,0,1-4.027-5.127,9.4,9.4,0,0,1-1.8-.483c-.391.646-.768,1.248-1.119,1.8a23.172,23.172,0,0,1-2.737,3.539,11.614,11.614,0,0,1-3.311,2.451A11.044,11.044,0,0,1-51.7-6.069c-.27.024-.56.035-.838.035A7.345,7.345,0,0,1-56.822-7.3c-.32.274-.65.532-.979.77a8.274,8.274,0,0,1-5.392,1.612l-.09-.006a7.257,7.257,0,0,1-4.021-1.6,6.951,6.951,0,0,1-2.41-3.708l-.009-.041c0-.005,0-.007,0-.011a28.71,28.71,0,0,1-2.157,2.716,18.759,18.759,0,0,1-3.716,3.2,11.461,11.461,0,0,1-5.066,1.8,11.355,11.355,0,0,1-2.1.032,10.649,10.649,0,0,1-5.581-1.881c-.5.486-1.015.954-1.537,1.4A26.663,26.663,0,0,1-95.863.8a22.742,22.742,0,0,1-7.1,1.957,18.545,18.545,0,0,1-7.536-.423A15.935,15.935,0,0,1-116.479-.8a15.57,15.57,0,0,1-4-5.213,19.556,19.556,0,0,1-1.772-6.377,23.715,23.715,0,0,1,.66-8.122,33.265,33.265,0,0,1,3.126-8.072l.09-.153a37.824,37.824,0,0,1,3.947-5.2,41.354,41.354,0,0,1,5.339-5,35.776,35.776,0,0,1,6.411-4.011,22.719,22.719,0,0,1,7.508-2.184,19.332,19.332,0,0,1,5.529.205v0l.061.015c.1.017.191.035.288.055l.367.073,0,.031a11.4,11.4,0,0,1,3.34,1.436,10.413,10.413,0,0,1,2.7,2.523A10.953,10.953,0,0,1-81.253-37.6a14.5,14.5,0,0,1,.635,3.308,10.385,10.385,0,0,1-.523,4.039,14.89,14.89,0,0,1-1.688,3.467c-.126.192-.256.381-.391.57q.529-.375,1.086-.706a11.641,11.641,0,0,1,5.256-1.595c.236-.015.461-.022.685-.022a7.478,7.478,0,0,1,3.538.794c.136-.207.281-.41.427-.607a9.93,9.93,0,0,1,2.016-2.019,6.3,6.3,0,0,1,3.08-1.27,4.777,4.777,0,0,1,.508-.027A4.946,4.946,0,0,1-63.059-30.1l.277.292.167.261a6.646,6.646,0,0,1,.9,2.022,5.269,5.269,0,0,1,2.02.577,11.193,11.193,0,0,1,1.4.855c.4.279.783.574,1.145.881.274-.6.542-1.154.812-1.665a15.441,15.441,0,0,1,1.047-1.757l.061-.084a6.331,6.331,0,0,1,4.437-2.521,5.97,5.97,0,0,1,3.932.91A5.383,5.383,0,0,1-45.1-28.52a10.346,10.346,0,0,1,1.5-1.362,7.239,7.239,0,0,1,3.14-1.391l.033-.006a6.246,6.246,0,0,1,3.646.445,4.612,4.612,0,0,1,2.344,2.414c.249-.322.507-.635.77-.936a15.846,15.846,0,0,1,3.857-3.216,11.64,11.64,0,0,1,5.254-1.6c.238-.014.461-.021.686-.021a6.8,6.8,0,0,1,4.624,1.541.573.573,0,0,1,.054.046,5.761,5.761,0,0,1,1.759-1.558,7.426,7.426,0,0,1,1.8-.75,5.817,5.817,0,0,1-.28-1.277A6.865,6.865,0,0,1-15.1-40.02a10.69,10.69,0,0,1,1.086-1.816,6.866,6.866,0,0,1,2.082-1.775l.136-.074a5.939,5.939,0,0,1,2.9-.65,6.289,6.289,0,0,1,2.773.708A5.761,5.761,0,0,1-3.82-41.457a5.934,5.934,0,0,1,.808,3.417l-.016.251-.035.19a9.828,9.828,0,0,1-.709,2.285A13.231,13.231,0,0,1,.511-36.691l.535-.073.533.1a6.052,6.052,0,0,1,1.052.3c.12-.075.241-.145.366-.212a6.447,6.447,0,0,1,2.331-.729,6.064,6.064,0,0,1,3.912.881A5.056,5.056,0,0,1,11.7-32.642a5.642,5.642,0,0,1-.095,1.8,5.522,5.522,0,0,1-.905,1.994,12.528,12.528,0,0,0-.641,1.241c-.173.37-.355.772-.54,1.2l-.085.194-.206.054a6.2,6.2,0,0,0-4.6,5.984A6.192,6.192,0,0,0,7.87-14.734l.607.33L7.4-13.617a8.908,8.908,0,0,1-5.319,1.811l-.33-.016A5.993,5.993,0,0,1-1.4-13.074c-.3.229-.61.448-.918.649A10.618,10.618,0,0,1-8.169-10.7l-.333-.016a9.085,9.085,0,0,1-3.514-1.074c-.265.239-.534.473-.8.7A34.333,34.333,0,0,1-15.777-8.9c-.356.971-.747,1.926-1.162,2.838A21.474,21.474,0,0,1-19.17-2.232,15.671,15.671,0,0,1-22.347,1.01a12.572,12.572,0,0,1-4.445,2.12,11.079,11.079,0,0,1-2.946.416" transform="translate(122.365 45.249)"/>
      </g>
      <g id="Group_9" data-name="Group 9" transform="translate(21.57 100.424)">
        <path id="Path_7" data-name="Path 7" class="cls-3" d="M-215.171-166.864a76.3,76.3,0,0,1-67.573-40.707l1.622-.858a74.472,74.472,0,0,0,65.952,39.73,74.561,74.561,0,0,0,70.631-50.568l1.737.59a76.4,76.4,0,0,1-72.368,51.813" transform="translate(282.744 219.267)"/>
      </g>
      <g id="Group_10" data-name="Group 10" transform="translate(23.416 0)">
        <path id="Path_8" data-name="Path 8" class="cls-3" d="M-431.972-160.621a74.407,74.407,0,0,0-26.9-34.948A74.088,74.088,0,0,0-501.9-209.229a74.542,74.542,0,0,0-37.431,10.059,75.031,75.031,0,0,0-26.72,26.46l-1.577-.938a76.872,76.872,0,0,1,27.374-27.109A76.382,76.382,0,0,1-501.9-211.063a75.916,75.916,0,0,1,44.091,14,76.242,76.242,0,0,1,27.56,35.807Z" transform="translate(567.631 211.063)"/>
      </g>
      <g id="Group_11" data-name="Group 11" transform="translate(54.676 122.732)">
        <path id="Path_9" data-name="Path 9" class="cls-3" d="M-12.366-17.766a1.748,1.748,0,0,0,1.15-.842,1.791,1.791,0,0,0,.341-1.4,2.1,2.1,0,0,0-.99-1.228l-.617-.411-2.008,3.015.7.468a1.971,1.971,0,0,0,1.422.394m2.776-2.406a2.792,2.792,0,0,1-.493,2.278,2.928,2.928,0,0,1-1.911,1.37,3.507,3.507,0,0,1-2.56-.732l-1.7-1.129,3.3-4.959,1.752,1.167a3.5,3.5,0,0,1,1.6,2.006" transform="translate(16.249 23.345)"/>
      </g>
      <g id="Group_12" data-name="Group 12" transform="translate(62.766 127.246)">
        <path id="Path_10" data-name="Path 10" class="cls-3" d="M-20.437-5.8l-.5,1.073L-23.626-5.99l-.521,1.111,2.416,1.132-.481,1.027-2.416-1.132-.525,1.119,2.771,1.3-.5,1.065-3.975-1.862,2.528-5.4Z" transform="translate(26.855 7.627)"/>
      </g>
      <g id="Group_13" data-name="Group 13" transform="translate(70.438 130.563)">
        <path id="Path_11" data-name="Path 11" class="cls-3" d="M-9.081-3.937a.514.514,0,0,0-.306.343.472.472,0,0,0,.1.464,4.289,4.289,0,0,0,.929.664,3.048,3.048,0,0,1,1.075.985,1.549,1.549,0,0,1,.091,1.3A1.609,1.609,0,0,1-8.146.889,2.4,2.4,0,0,1-9.8.9a3.658,3.658,0,0,1-2.129-1.75l1.043-.7A2.819,2.819,0,0,0-9.435-.216a.934.934,0,0,0,.6.018.506.506,0,0,0,.325-.346A.5.5,0,0,0-8.6-1.016a2.891,2.891,0,0,0-.745-.564,3.815,3.815,0,0,1-1.266-1.062,1.52,1.52,0,0,1-.1-1.331A1.543,1.543,0,0,1-9.74-5.044a2.452,2.452,0,0,1,1.59.007,3.659,3.659,0,0,1,1.08.546,3.2,3.2,0,0,1,.824.859l-.929.732A2.623,2.623,0,0,0-8.534-3.934a.8.8,0,0,0-.548,0" transform="translate(11.933 5.173)"/>
      </g>
      <g id="Group_14" data-name="Group 14" transform="translate(78.635 132.238)">
        <path id="Path_12" data-name="Path 12" class="cls-3" d="M-12.034-15.3a1.747,1.747,0,0,0,.683-1.251,1.792,1.792,0,0,0-.284-1.409,2.1,2.1,0,0,0-1.418-.691l-.733-.11-.538,3.582.835.125a1.972,1.972,0,0,0,1.455-.247m1.491-3.358a2.793,2.793,0,0,1,.521,2.272,2.929,2.929,0,0,1-1.148,2.052,3.506,3.506,0,0,1-2.628.424l-2.015-.3.885-5.892,2.082.313a3.5,3.5,0,0,1,2.3,1.134" transform="translate(15.813 20.104)"/>
      </g>
      <g id="Group_15" data-name="Group 15" transform="translate(88.083 133.198)">
        <path id="Path_13" data-name="Path 13" class="cls-3" d="M-13.893-.154l-.013,1.185L-16.873,1l-.014,1.227,2.668.03-.013,1.134-2.668-.03-.014,1.236,3.06.034-.013,1.176-4.39-.049L-18.189-.2Z" transform="translate(18.256 0.202)"/>
      </g>
      <g id="Group_16" data-name="Group 16" transform="translate(100.024 131.767)">
        <path id="Path_14" data-name="Path 14" class="cls-3" d="M-8.883-7.531A1.078,1.078,0,0,0-8.8-8.183a.685.685,0,0,0-.3-.445.672.672,0,0,0-.534-.087q-.549.121-.869,1.011l-1.176-.387a3.307,3.307,0,0,1,.684-1.154,2.246,2.246,0,0,1,1.169-.6,2.046,2.046,0,0,1,1.429.188,1.651,1.651,0,0,1,.857,1.178,1.792,1.792,0,0,1-.04.912,5.751,5.751,0,0,1-.613,1.239L-9-5.006l2.3-.5.256,1.166-4.1.9-.212-.966,1.323-2.123a7.679,7.679,0,0,0,.553-1" transform="translate(11.673 9.896)"/>
      </g>
      <g id="Group_17" data-name="Group 17" transform="translate(107.574 129.501)">
        <path id="Path_15" data-name="Path 15" class="cls-3" d="M-4.123-6.476a3.157,3.157,0,0,0,.24,1.448,3.155,3.155,0,0,0,.767,1.251.927.927,0,0,0,1.013.2.927.927,0,0,0,.632-.818,3.152,3.152,0,0,0-.24-1.448A3.157,3.157,0,0,0-2.477-7.09a.927.927,0,0,0-1.013-.2.927.927,0,0,0-.632.818m2.4,3.926a2.143,2.143,0,0,1-2.027-.14A3.721,3.721,0,0,1-5.106-4.577a3.717,3.717,0,0,1-.208-2.315,2.143,2.143,0,0,1,1.44-1.433,2.142,2.142,0,0,1,2.027.14A3.717,3.717,0,0,1-.49-6.3,3.717,3.717,0,0,1-.282-3.983,2.141,2.141,0,0,1-1.721-2.55" transform="translate(5.417 8.51)"/>
      </g>
      <g id="Group_18" data-name="Group 18" transform="translate(114.039 126.621)">
        <path id="Path_16" data-name="Path 16" class="cls-3" d="M0-3.56,2.138-4.678,4.9.6l-1.133.593L1.53-3.081l-1,.526Z" transform="translate(0 4.678)"/>
      </g>
      <g id="Group_19" data-name="Group 19" transform="translate(119.998 122.993)">
        <path id="Path_17" data-name="Path 17" class="cls-3" d="M-8.967-10.282a.974.974,0,0,0-.415.57.771.771,0,0,0,.124.654.9.9,0,0,0,.575.386A.845.845,0,0,0-8-8.813a.9.9,0,0,0,.392-.559.807.807,0,0,0-.139-.654.929.929,0,0,0-.552-.4.794.794,0,0,0-.663.14m-1.072-1.87a1.043,1.043,0,0,0-.5.791,1.877,1.877,0,0,0,.266,1.043A2.131,2.131,0,0,1-9.5-11.28a1.915,1.915,0,0,1,1.458-.339,1.94,1.94,0,0,1,1.283.882A1.868,1.868,0,0,1-6.434-9.2a2.167,2.167,0,0,1-.939,1.306,2.334,2.334,0,0,1-1.041.42,1.761,1.761,0,0,1-.977-.151,4.017,4.017,0,0,1-1.618-1.453,4.663,4.663,0,0,1-.648-1.3,2.456,2.456,0,0,1-.1-1.116,2.239,2.239,0,0,1,.986-1.546,2.561,2.561,0,0,1,.727-.349,2.732,2.732,0,0,1,.624-.123,5.074,5.074,0,0,1,.556.011l.011,1.13q-.071-.013-.2-.028a1.894,1.894,0,0,0-.445.037,1.319,1.319,0,0,0-.541.206" transform="translate(11.783 13.512)"/>
      </g>
    </g>
  </g>
</svg>
