<?xml version="1.0" encoding="UTF-8"?>
<svg width="31px" height="36px" viewBox="0 0 31 36" version="1.1" xmlns="http://www.w3.org/2000/svg" xmlns:xlink="http://www.w3.org/1999/xlink">
    <!-- Generator: Sketch 45 (43475) - http://www.bohemiancoding.com/sketch -->
    <title>Combined Shape</title>
    <desc>Created with Sketch.</desc>
    <defs></defs>
    <g id="Page-1" stroke="none" stroke-width="1" fill="none" fill-rule="evenodd">
        <g id="noun_1051344_cc" transform="translate(-15.000000, 0.000000)" fill-rule="nonzero" fill="#FFFFFF">
            <g id="Group" transform="translate(15.000000, 0.000000)">
                <path d="M14.7997087,35.6229907 L5.05944411,25.8827261 C-0.819814704,20.0034673 -0.819814704,10.4387029 5.05944411,4.55944411 C10.9387029,-1.3198147 20.5034673,-1.3198147 26.3827261,4.55944411 C32.2619849,10.4387029 32.2619849,20.0034673 26.3827261,25.8827261 L16.6424615,35.6229907 C16.3792111,35.8862411 16.0282106,36.0178663 15.7210851,36.0178663 C15.4139596,36.0178663 15.0629591,35.8862411 14.7997087,35.6229907 Z M15.5715851,9.73670188 C13.2548082,9.73670188 11.3335785,11.6579315 11.3335785,13.9747084 C11.3335785,16.2914854 13.2548082,18.212715 15.5715851,18.212715 C17.888362,18.212715 19.8095916,16.2914854 19.8095916,13.9747084 C19.8095916,11.6579315 17.888362,9.73670188 15.5715851,9.73670188 Z" id="Combined-Shape"></path>
            </g>
        </g>
    </g>
</svg>